<?xml version="1.0" encoding="utf-8" standalone="no"?>
<!DOCTYPE svg PUBLIC "-//W3C//DTD SVG 1.1//EN"
  "http://www.w3.org/Graphics/SVG/1.1/DTD/svg11.dtd">
<svg xmlns:xlink="http://www.w3.org/1999/xlink" width="767.7pt" height="441.97365pt" viewBox="0 0 767.7 441.97365" xmlns="http://www.w3.org/2000/svg" version="1.1">
 <metadata>
  <rdf:RDF xmlns:dc="http://purl.org/dc/elements/1.1/" xmlns:cc="http://creativecommons.org/ns#" xmlns:rdf="http://www.w3.org/1999/02/22-rdf-syntax-ns#">
   <cc:Work>
    <dc:type rdf:resource="http://purl.org/dc/dcmitype/StillImage"/>
    <dc:date>2025-09-23T01:43:01.906604</dc:date>
    <dc:format>image/svg+xml</dc:format>
    <dc:creator>
     <cc:Agent>
      <dc:title>Matplotlib v3.10.3, https://matplotlib.org/</dc:title>
     </cc:Agent>
    </dc:creator>
   </cc:Work>
  </rdf:RDF>
 </metadata>
 <defs>
  <style type="text/css">*{stroke-linejoin: round; stroke-linecap: butt}</style>
 </defs>
 <g id="figure_1">
  <g id="patch_1">
   <path d="M 0 441.97365 
L 767.7 441.97365 
L 767.7 0 
L 0 0 
z
" style="fill: #ffffff"/>
  </g>
  <g id="axes_1">
   <g id="patch_2">
    <path d="M 44.865 165.956178 
L 210.591 165.956178 
Q 219.6306 165.956178 219.6306 160.90005 
L 219.6306 101.91189 
Q 219.6306 96.855762 210.591 96.855762 
L 44.865 96.855762 
Q 35.8254 96.855762 35.8254 101.91189 
L 35.8254 160.90005 
Q 35.8254 165.956178 44.865 165.956178 
L 44.865 165.956178 
z
" clip-path="url(#p1423f868bd)" style="fill: none; stroke: #145da0; stroke-width: 1.8; stroke-linejoin: miter"/>
   </g>
   <g id="patch_3">
    <path d="M 44.865 279.719058 
L 210.591 279.719058 
Q 219.6306 279.719058 219.6306 274.66293 
L 219.6306 215.67477 
Q 219.6306 210.618642 210.591 210.618642 
L 44.865 210.618642 
Q 35.8254 210.618642 35.8254 215.67477 
L 35.8254 274.66293 
Q 35.8254 279.719058 44.865 279.719058 
L 44.865 279.719058 
z
" clip-path="url(#p1423f868bd)" style="fill: none; stroke: #b00020; stroke-width: 1.8; stroke-linejoin: miter"/>
   </g>
   <g id="patch_4">
    <path d="M 44.865 393.481938 
L 210.591 393.481938 
Q 219.6306 393.481938 219.6306 388.42581 
L 219.6306 329.43765 
Q 219.6306 324.381522 210.591 324.381522 
L 44.865 324.381522 
Q 35.8254 324.381522 35.8254 329.43765 
L 35.8254 388.42581 
Q 35.8254 393.481938 44.865 393.481938 
L 44.865 393.481938 
z
" clip-path="url(#p1423f868bd)" style="fill: none; stroke: #b00020; stroke-width: 1.8; stroke-linejoin: miter"/>
   </g>
   <g id="patch_5">
    <path d="M 546.5628 76.63125 
L 545.545885 78.247727 
L 544.541843 79.864204 
L 543.550673 81.480681 
L 542.572375 83.097158 
L 541.60695 84.713635 
L 540.654396 86.330112 
L 539.714716 87.946589 
L 538.787907 89.563066 
L 537.873971 91.179543 
L 536.972908 92.79602 
L 536.084716 94.412497 
L 535.209397 96.028974 
L 534.34695 97.645451 
L 533.497376 99.261928 
L 532.660674 100.878405 
L 531.836844 102.494882 
L 531.025887 104.111359 
L 530.227802 105.727836 
L 529.442589 107.344313 
L 528.670249 108.96079 
L 527.910781 110.577267 
L 527.164185 112.193744 
L 526.430462 113.810221 
L 525.709611 115.426698 
L 525.001632 117.043175 
L 524.306526 118.659652 
L 523.624292 120.276128 
L 522.95493 121.892605 
L 522.298441 123.509082 
L 521.654824 125.125559 
L 521.02408 126.742036 
L 520.406207 128.358513 
L 519.801207 129.97499 
L 519.20908 131.591467 
L 518.629825 133.207944 
L 518.063442 134.824421 
L 517.509931 136.440898 
L 516.969293 138.057375 
L 516.441527 139.673852 
L 515.926633 141.290329 
L 515.424612 142.906806 
L 514.935463 144.523283 
L 514.459187 146.13976 
L 513.995783 147.756237 
L 513.545251 149.372714 
L 513.107591 150.989191 
L 512.682804 152.605668 
L 512.270889 154.222145 
L 511.871847 155.838622 
L 511.485676 157.455099 
L 511.112379 159.071576 
L 510.751953 160.688053 
L 510.4044 162.30453 
L 510.069719 163.921007 
L 509.747911 165.537484 
L 509.438975 167.153961 
L 509.142911 168.770438 
L 508.859719 170.386915 
L 508.5894 172.003392 
L 508.331953 173.619869 
L 508.087379 175.236346 
L 507.855677 176.852823 
L 507.636847 178.4693 
L 507.43089 180.085777 
L 507.237805 181.702254 
L 507.057592 183.318731 
L 506.890251 184.935208 
L 506.735783 186.551685 
L 506.594188 188.168162 
L 506.465464 189.784639 
L 506.349613 191.401116 
L 506.246635 193.017593 
L 506.156528 194.63407 
L 506.079294 196.250547 
L 506.014932 197.867024 
L 505.963443 199.483501 
L 505.924826 201.099978 
L 505.899081 202.716455 
L 505.886209 204.332932 
L 505.886209 205.949408 
L 505.899081 207.565885 
L 505.924826 209.182362 
L 505.963443 210.798839 
L 506.014932 212.415316 
L 506.079294 214.031793 
L 506.156528 215.64827 
L 506.246635 217.264747 
L 506.349613 218.881224 
L 506.465464 220.497701 
L 506.594188 222.114178 
L 506.735783 223.730655 
L 506.890251 225.347132 
L 507.057592 226.963609 
L 507.237805 228.580086 
L 507.43089 230.196563 
L 507.636847 231.81304 
L 507.855677 233.429517 
L 508.087379 235.045994 
L 508.331953 236.662471 
L 508.5894 238.278948 
L 508.859719 239.895425 
L 509.142911 241.511902 
L 509.438975 243.128379 
L 509.747911 244.744856 
L 510.069719 246.361333 
L 510.4044 247.97781 
L 510.751953 249.594287 
L 511.112379 251.210764 
L 511.485676 252.827241 
L 511.871847 254.443718 
L 512.270889 256.060195 
L 512.682804 257.676672 
L 513.107591 259.293149 
L 513.545251 260.909626 
L 513.995783 262.526103 
L 514.459187 264.14258 
L 514.935463 265.759057 
L 515.424612 267.375534 
L 515.926633 268.992011 
L 516.441527 270.608488 
L 516.969293 272.224965 
L 517.509931 273.841442 
L 518.063442 275.457919 
L 518.629825 277.074396 
L 519.20908 278.690873 
L 519.801207 280.30735 
L 520.406207 281.923827 
L 521.02408 283.540304 
L 521.654824 285.156781 
L 522.298441 286.773258 
L 522.95493 288.389735 
L 523.624292 290.006212 
L 524.306526 291.622688 
L 525.001632 293.239165 
L 525.709611 294.855642 
L 526.430462 296.472119 
L 527.164185 298.088596 
L 527.910781 299.705073 
L 528.670249 301.32155 
L 529.442589 302.938027 
L 530.227802 304.554504 
L 531.025887 306.170981 
L 531.836844 307.787458 
L 532.660674 309.403935 
L 533.497376 311.020412 
L 534.34695 312.636889 
L 535.209397 314.253366 
L 536.084716 315.869843 
L 536.972908 317.48632 
L 537.873971 319.102797 
L 538.787907 320.719274 
L 539.714716 322.335751 
L 540.654396 323.952228 
L 541.60695 325.568705 
L 542.572375 327.185182 
L 543.550673 328.801659 
L 544.541843 330.418136 
L 545.545885 332.034613 
L 546.5628 333.65109 
L 263.17134 333.65109 
L 264.391638 332.034613 
L 265.596489 330.418136 
L 266.785893 328.801659 
L 267.95985 327.185182 
L 269.118361 325.568705 
L 270.261424 323.952228 
L 271.389041 322.335751 
L 272.501211 320.719274 
L 273.597935 319.102797 
L 274.679211 317.48632 
L 275.745041 315.869843 
L 276.795424 314.253366 
L 277.83036 312.636889 
L 278.849849 311.020412 
L 279.853891 309.403935 
L 280.842487 307.787458 
L 281.815636 306.170981 
L 282.773338 304.554504 
L 283.715593 302.938027 
L 284.642401 301.32155 
L 285.553763 299.705073 
L 286.449678 298.088596 
L 287.330146 296.472119 
L 288.195167 294.855642 
L 289.044741 293.239165 
L 289.878869 291.622688 
L 290.69755 290.006212 
L 291.500783 288.389735 
L 292.288571 286.773258 
L 293.060911 285.156781 
L 293.817804 283.540304 
L 294.559251 281.923827 
L 295.285251 280.30735 
L 295.995804 278.690873 
L 296.690911 277.074396 
L 297.37057 275.457919 
L 298.034783 273.841442 
L 298.683549 272.224965 
L 299.316868 270.608488 
L 299.93474 268.992011 
L 300.537165 267.375534 
L 301.124144 265.759057 
L 301.695676 264.14258 
L 302.251761 262.526103 
L 302.792399 260.909626 
L 303.317591 259.293149 
L 303.827335 257.676672 
L 304.321633 256.060195 
L 304.800484 254.443718 
L 305.263888 252.827241 
L 305.711846 251.210764 
L 306.144356 249.594287 
L 306.56142 247.97781 
L 306.963037 246.361333 
L 307.349207 244.744856 
L 307.719931 243.128379 
L 308.075207 241.511902 
L 308.415037 239.895425 
L 308.73942 238.278948 
L 309.048356 236.662471 
L 309.341845 235.045994 
L 309.619888 233.429517 
L 309.882483 231.81304 
L 310.129632 230.196563 
L 310.361334 228.580086 
L 310.57759 226.963609 
L 310.778398 225.347132 
L 310.96376 223.730655 
L 311.133675 222.114178 
L 311.288143 220.497701 
L 311.427164 218.881224 
L 311.550739 217.264747 
L 311.658866 215.64827 
L 311.751547 214.031793 
L 311.828781 212.415316 
L 311.890568 210.798839 
L 311.936909 209.182362 
L 311.967802 207.565885 
L 311.983249 205.949408 
L 311.983249 204.332932 
L 311.967802 202.716455 
L 311.936909 201.099978 
L 311.890568 199.483501 
L 311.828781 197.867024 
L 311.751547 196.250547 
L 311.658866 194.63407 
L 311.550739 193.017593 
L 311.427164 191.401116 
L 311.288143 189.784639 
L 311.133675 188.168162 
L 310.96376 186.551685 
L 310.778398 184.935208 
L 310.57759 183.318731 
L 310.361334 181.702254 
L 310.129632 180.085777 
L 309.882483 178.4693 
L 309.619888 176.852823 
L 309.341845 175.236346 
L 309.048356 173.619869 
L 308.73942 172.003392 
L 308.415037 170.386915 
L 308.075207 168.770438 
L 307.719931 167.153961 
L 307.349207 165.537484 
L 306.963037 163.921007 
L 306.56142 162.30453 
L 306.144356 160.688053 
L 305.711846 159.071576 
L 305.263888 157.455099 
L 304.800484 155.838622 
L 304.321633 154.222145 
L 303.827335 152.605668 
L 303.317591 150.989191 
L 302.792399 149.372714 
L 302.251761 147.756237 
L 301.695676 146.13976 
L 301.124144 144.523283 
L 300.537165 142.906806 
L 299.93474 141.290329 
L 299.316868 139.673852 
L 298.683549 138.057375 
L 298.034783 136.440898 
L 297.37057 134.824421 
L 296.690911 133.207944 
L 295.995804 131.591467 
L 295.285251 129.97499 
L 294.559251 128.358513 
L 293.817804 126.742036 
L 293.060911 125.125559 
L 292.288571 123.509082 
L 291.500783 121.892605 
L 290.69755 120.276128 
L 289.878869 118.659652 
L 289.044741 117.043175 
L 288.195167 115.426698 
L 287.330146 113.810221 
L 286.449678 112.193744 
L 285.553763 110.577267 
L 284.642401 108.96079 
L 283.715593 107.344313 
L 282.773338 105.727836 
L 281.815636 104.111359 
L 280.842487 102.494882 
L 279.853891 100.878405 
L 278.849849 99.261928 
L 277.83036 97.645451 
L 276.795424 96.028974 
L 275.745041 94.412497 
L 274.679211 92.79602 
L 273.597935 91.179543 
L 272.501211 89.563066 
L 271.389041 87.946589 
L 270.261424 86.330112 
L 269.118361 84.713635 
L 267.95985 83.097158 
L 266.785893 81.480681 
L 265.596489 79.864204 
L 264.391638 78.247727 
L 263.17134 76.63125 
" clip-path="url(#p1423f868bd)" style="fill: #ff8c00; fill-opacity: 0.1"/>
   </g>
   <g id="patch_6">
    <path d="M 557.109 165.956178 
L 722.835 165.956178 
Q 731.8746 165.956178 731.8746 160.90005 
L 731.8746 101.91189 
Q 731.8746 96.855762 722.835 96.855762 
L 557.109 96.855762 
Q 548.0694 96.855762 548.0694 101.91189 
L 548.0694 160.90005 
Q 548.0694 165.956178 557.109 165.956178 
L 557.109 165.956178 
z
" clip-path="url(#p1423f868bd)" style="fill: none; stroke: #145da0; stroke-width: 1.8; stroke-linejoin: miter"/>
   </g>
   <g id="patch_7">
    <path d="M 557.109 279.719058 
L 722.835 279.719058 
Q 731.8746 279.719058 731.8746 274.66293 
L 731.8746 215.67477 
Q 731.8746 210.618642 722.835 210.618642 
L 557.109 210.618642 
Q 548.0694 210.618642 548.0694 215.67477 
L 548.0694 274.66293 
Q 548.0694 279.719058 557.109 279.719058 
L 557.109 279.719058 
z
" clip-path="url(#p1423f868bd)" style="fill: none; stroke: #145da0; stroke-width: 1.8; stroke-linejoin: miter"/>
   </g>
   <g id="patch_8">
    <path d="M 557.109 393.481938 
L 722.835 393.481938 
Q 731.8746 393.481938 731.8746 388.42581 
L 731.8746 329.43765 
Q 731.8746 324.381522 722.835 324.381522 
L 557.109 324.381522 
Q 548.0694 324.381522 548.0694 329.43765 
L 548.0694 388.42581 
Q 548.0694 393.481938 557.109 393.481938 
L 557.109 393.481938 
z
" clip-path="url(#p1423f868bd)" style="fill: none; stroke: #b00020; stroke-width: 1.8; stroke-linejoin: miter"/>
   </g>
   <g id="patch_9">
    <path d="M 212.589654 131.40597 
Q 278.386422 131.40597 343.065156 131.40597 
" clip-path="url(#p1423f868bd)" style="fill: none; stroke: #145da0; stroke-linecap: round"/>
    <path d="M 336.665156 128.20597 
L 343.065156 131.40597 
L 336.665156 134.60597 
" clip-path="url(#p1423f868bd)" style="fill: none; stroke: #145da0; stroke-linecap: round"/>
   </g>
   <g id="patch_10">
    <path d="M 212.575171 245.43309 
Q 289.690409 255.702837 365.697398 265.824995 
" clip-path="url(#p1423f868bd)" style="fill: none; stroke-dasharray: 1,1.65; stroke-dashoffset: 0; stroke: #b00020; stroke-linecap: round"/>
    <path d="M 359.775834 261.808144 
L 365.697398 265.824995 
L 358.930979 268.152135 
" clip-path="url(#p1423f868bd)" style="fill: none; stroke-dasharray: 1,1.65; stroke-dashoffset: 0; stroke: #b00020; stroke-linecap: round"/>
   </g>
   <g id="patch_11">
    <path d="M 211.706191 357.268368 
Q 278.388482 257.808451 344.448173 159.277173 
" clip-path="url(#p1423f868bd)" style="fill: none; stroke-dasharray: 3.7,1.6; stroke-dashoffset: 0; stroke: #145da0; stroke-linecap: round"/>
    <path d="M 338.226285 162.811025 
L 344.448173 159.277173 
L 343.542121 166.374995 
" clip-path="url(#p1423f868bd)" style="fill: none; stroke-dasharray: 3.7,1.6; stroke-dashoffset: 0; stroke: #145da0; stroke-linecap: round"/>
   </g>
   <g id="patch_12">
    <path d="M 468.696482 114.829566 
Q 511.911176 120.872395 554.018609 126.760392 
" clip-path="url(#p1423f868bd)" style="fill: none; stroke: #145da0; stroke-linecap: round"/>
    <path d="M 548.123429 122.704919 
L 554.018609 126.760392 
L 547.237123 129.043252 
" clip-path="url(#p1423f868bd)" style="fill: none; stroke: #145da0; stroke-linecap: round"/>
   </g>
   <g id="patch_13">
    <path d="M 460.665312 158.028641 
Q 508.143991 200.92727 554.793101 243.076356 
" clip-path="url(#p1423f868bd)" style="fill: none; stroke: #145da0; stroke-linecap: round"/>
    <path d="M 552.189694 236.411352 
L 554.793101 243.076356 
L 547.899054 241.16008 
" clip-path="url(#p1423f868bd)" style="fill: none; stroke: #145da0; stroke-linecap: round"/>
   </g>
   <g id="patch_14">
    <path d="M 460.599564 267.64083 
Q 508.143008 314.689133 554.891755 360.951017 
" clip-path="url(#p1423f868bd)" style="fill: none; stroke-dasharray: 1,1.65; stroke-dashoffset: 0; stroke: #b00020; stroke-linecap: round"/>
    <path d="M 552.593512 354.174729 
L 554.891755 360.951017 
L 548.091779 358.723838 
" clip-path="url(#p1423f868bd)" style="fill: none; stroke-dasharray: 1,1.65; stroke-dashoffset: 0; stroke: #b00020; stroke-linecap: round"/>
   </g>
   <g id="line2d_1">
    <path d="M 546.5628 76.63125 
L 541.60695 84.713635 
L 536.972908 92.79602 
L 533.497376 99.261928 
L 530.227802 105.727836 
L 527.164185 112.193744 
L 524.306526 118.659652 
L 521.654824 125.125559 
L 519.20908 131.591467 
L 516.969293 138.057375 
L 514.935463 144.523283 
L 513.107591 150.989191 
L 511.485676 157.455099 
L 510.069719 163.921007 
L 508.859719 170.386915 
L 507.855677 176.852823 
L 507.057592 183.318731 
L 506.465464 189.784639 
L 506.079294 196.250547 
L 505.899081 202.716455 
L 505.924826 209.182362 
L 506.156528 215.64827 
L 506.594188 222.114178 
L 507.237805 228.580086 
L 508.087379 235.045994 
L 509.142911 241.511902 
L 510.4044 247.97781 
L 511.871847 254.443718 
L 513.545251 260.909626 
L 515.424612 267.375534 
L 517.509931 273.841442 
L 519.801207 280.30735 
L 522.298441 286.773258 
L 525.001632 293.239165 
L 527.910781 299.705073 
L 531.025887 306.170981 
L 534.34695 312.636889 
L 537.873971 319.102797 
L 541.60695 325.568705 
L 546.5628 333.65109 
L 546.5628 333.65109 
" clip-path="url(#p1423f868bd)" style="fill: none; stroke: #ff8c00; stroke-width: 2.6; stroke-linecap: square"/>
   </g>
   <g id="line2d_2">
    <path d="M 263.17134 76.63125 
L 267.95985 83.097158 
L 272.501211 89.563066 
L 276.795424 96.028974 
L 280.842487 102.494882 
L 284.642401 108.96079 
L 288.195167 115.426698 
L 291.500783 121.892605 
L 294.559251 128.358513 
L 297.37057 134.824421 
L 299.93474 141.290329 
L 302.251761 147.756237 
L 304.321633 154.222145 
L 306.144356 160.688053 
L 307.719931 167.153961 
L 309.048356 173.619869 
L 310.129632 180.085777 
L 310.96376 186.551685 
L 311.550739 193.017593 
L 311.890568 199.483501 
L 311.983249 205.949408 
L 311.828781 212.415316 
L 311.427164 218.881224 
L 310.778398 225.347132 
L 309.882483 231.81304 
L 308.73942 238.278948 
L 307.349207 244.744856 
L 305.711846 251.210764 
L 303.827335 257.676672 
L 301.695676 264.14258 
L 299.316868 270.608488 
L 296.690911 277.074396 
L 293.817804 283.540304 
L 290.69755 290.006212 
L 287.330146 296.472119 
L 283.715593 302.938027 
L 279.853891 309.403935 
L 275.745041 315.869843 
L 271.389041 322.335751 
L 266.785893 328.801659 
L 263.17134 333.65109 
L 263.17134 333.65109 
" clip-path="url(#p1423f868bd)" style="fill: none; stroke: #ff8c00; stroke-width: 2.6; stroke-linecap: square"/>
   </g>
   <g id="line2d_3">
    <path d="M 331.119 169.32693 
L 331.119 97.69845 
" clip-path="url(#p1423f868bd)" style="fill: none; stroke: #1f77b4; stroke-opacity: 0.9; stroke-width: 1.2; stroke-linecap: square"/>
   </g>
   <g id="line2d_4">
    <path d="M 365.0175 169.32693 
L 365.0175 97.69845 
" clip-path="url(#p1423f868bd)" style="fill: none; stroke: #ff7f0e; stroke-opacity: 0.9; stroke-width: 1.2; stroke-linecap: square"/>
   </g>
   <g id="line2d_5">
    <path d="M 398.916 169.32693 
L 398.916 97.69845 
" clip-path="url(#p1423f868bd)" style="fill: none; stroke: #2ca02c; stroke-opacity: 0.9; stroke-width: 1.2; stroke-linecap: square"/>
   </g>
   <g id="line2d_6">
    <path d="M 432.8145 169.32693 
L 432.8145 97.69845 
" clip-path="url(#p1423f868bd)" style="fill: none; stroke: #d62728; stroke-opacity: 0.9; stroke-width: 1.2; stroke-linecap: square"/>
   </g>
   <g id="line2d_7">
    <path d="M 466.713 169.32693 
L 466.713 97.69845 
" clip-path="url(#p1423f868bd)" style="fill: none; stroke: #9467bd; stroke-opacity: 0.9; stroke-width: 1.2; stroke-linecap: square"/>
   </g>
   <g id="line2d_8">
    <path d="M 331.119 169.32693 
L 466.713 169.32693 
" clip-path="url(#p1423f868bd)" style="fill: none; stroke: #8c564b; stroke-opacity: 0.9; stroke-width: 1.2; stroke-linecap: square"/>
   </g>
   <g id="line2d_9">
    <path d="M 331.119 145.45077 
L 466.713 145.45077 
" clip-path="url(#p1423f868bd)" style="fill: none; stroke: #e377c2; stroke-opacity: 0.9; stroke-width: 1.2; stroke-linecap: square"/>
   </g>
   <g id="line2d_10">
    <path d="M 331.119 121.57461 
L 466.713 121.57461 
" clip-path="url(#p1423f868bd)" style="fill: none; stroke: #7f7f7f; stroke-opacity: 0.9; stroke-width: 1.2; stroke-linecap: square"/>
   </g>
   <g id="line2d_11">
    <path d="M 331.119 97.69845 
L 466.713 97.69845 
" clip-path="url(#p1423f868bd)" style="fill: none; stroke: #bcbd22; stroke-opacity: 0.9; stroke-width: 1.2; stroke-linecap: square"/>
   </g>
   <g id="line2d_12">
    <path d="M 353.718 287.30325 
L 360.4977 266.528694 
L 341.975215 236.449326 
L 367.2774 215.67477 
" clip-path="url(#p1423f868bd)" style="fill: none; stroke: #17becf; stroke-opacity: 0.9; stroke-width: 1.2; stroke-linecap: square"/>
   </g>
   <g id="line2d_13">
    <path d="M 395.75214 280.685641 
L 402.53184 259.911086 
L 384.009355 229.831717 
L 409.31154 209.057161 
" clip-path="url(#p1423f868bd)" style="fill: none; stroke: #1f77b4; stroke-opacity: 0.9; stroke-width: 1.2; stroke-linecap: square"/>
   </g>
   <g id="line2d_14">
    <path d="M 421.515 292.368148 
L 428.2947 271.593593 
L 409.772215 241.514224 
L 435.0744 220.739668 
" clip-path="url(#p1423f868bd)" style="fill: none; stroke: #ff7f0e; stroke-opacity: 0.9; stroke-width: 1.2; stroke-linecap: square"/>
   </g>
   <g id="line2d_15">
    <path d="M 447.27786 290.044353 
L 454.05756 269.269797 
L 435.535075 239.190429 
L 460.83726 218.415873 
" clip-path="url(#p1423f868bd)" style="fill: none; stroke: #2ca02c; stroke-opacity: 0.9; stroke-width: 1.2; stroke-linecap: square"/>
   </g>
   <g id="line2d_16">
    <path d="M 489.312 280.140402 
L 496.0917 259.365846 
L 477.569215 229.286478 
L 502.8714 208.511922 
" clip-path="url(#p1423f868bd)" style="fill: none; stroke: #d62728; stroke-opacity: 0.9; stroke-width: 1.2; stroke-linecap: square"/>
   </g>
   <g id="line2d_17">
    <path d="M 353.718 287.30325 
L 395.75214 280.685641 
L 421.515 292.368148 
L 447.27786 290.044353 
L 489.312 280.140402 
" clip-path="url(#p1423f868bd)" style="fill: none; stroke: #9467bd; stroke-opacity: 0.9; stroke-width: 1.2; stroke-linecap: square"/>
   </g>
   <g id="line2d_18">
    <path d="M 360.4977 266.528694 
L 402.53184 259.911086 
L 428.2947 271.593593 
L 454.05756 269.269797 
L 496.0917 259.365846 
" clip-path="url(#p1423f868bd)" style="fill: none; stroke: #8c564b; stroke-opacity: 0.9; stroke-width: 1.2; stroke-linecap: square"/>
   </g>
   <g id="line2d_19">
    <path d="M 341.975215 236.449326 
L 384.009355 229.831717 
L 409.772215 241.514224 
L 435.535075 239.190429 
L 477.569215 229.286478 
" clip-path="url(#p1423f868bd)" style="fill: none; stroke: #e377c2; stroke-opacity: 0.9; stroke-width: 1.2; stroke-linecap: square"/>
   </g>
   <g id="line2d_20">
    <path d="M 367.2774 215.67477 
L 409.31154 209.057161 
L 435.0744 220.739668 
L 460.83726 218.415873 
L 502.8714 208.511922 
" clip-path="url(#p1423f868bd)" style="fill: none; stroke: #7f7f7f; stroke-opacity: 0.9; stroke-width: 1.2; stroke-linecap: square"/>
   </g>
   <g id="text_1">
    <!-- How caption policy shapes learned features and outcomes -->
    <g transform="translate(119.8 19.3575) scale(0.16 -0.16)">
     <defs>
      <path id="DejaVuSans-Bold-48" d="M 588 4666 
L 1791 4666 
L 1791 2888 
L 3566 2888 
L 3566 4666 
L 4769 4666 
L 4769 0 
L 3566 0 
L 3566 1978 
L 1791 1978 
L 1791 0 
L 588 0 
L 588 4666 
z
" transform="scale(0.015625)"/>
      <path id="DejaVuSans-Bold-6f" d="M 2203 2784 
Q 1831 2784 1636 2517 
Q 1441 2250 1441 1747 
Q 1441 1244 1636 976 
Q 1831 709 2203 709 
Q 2569 709 2762 976 
Q 2956 1244 2956 1747 
Q 2956 2250 2762 2517 
Q 2569 2784 2203 2784 
z
M 2203 3584 
Q 3106 3584 3614 3096 
Q 4122 2609 4122 1747 
Q 4122 884 3614 396 
Q 3106 -91 2203 -91 
Q 1297 -91 786 396 
Q 275 884 275 1747 
Q 275 2609 786 3096 
Q 1297 3584 2203 3584 
z
" transform="scale(0.015625)"/>
      <path id="DejaVuSans-Bold-77" d="M 225 3500 
L 1313 3500 
L 1900 1088 
L 2491 3500 
L 3425 3500 
L 4013 1113 
L 4603 3500 
L 5691 3500 
L 4769 0 
L 3547 0 
L 2956 2406 
L 2369 0 
L 1147 0 
L 225 3500 
z
" transform="scale(0.015625)"/>
      <path id="DejaVuSans-Bold-20" transform="scale(0.015625)"/>
      <path id="DejaVuSans-Bold-63" d="M 3366 3391 
L 3366 2478 
Q 3138 2634 2908 2709 
Q 2678 2784 2431 2784 
Q 1963 2784 1702 2511 
Q 1441 2238 1441 1747 
Q 1441 1256 1702 982 
Q 1963 709 2431 709 
Q 2694 709 2930 787 
Q 3166 866 3366 1019 
L 3366 103 
Q 3103 6 2833 -42 
Q 2563 -91 2291 -91 
Q 1344 -91 809 395 
Q 275 881 275 1747 
Q 275 2613 809 3098 
Q 1344 3584 2291 3584 
Q 2566 3584 2833 3536 
Q 3100 3488 3366 3391 
z
" transform="scale(0.015625)"/>
      <path id="DejaVuSans-Bold-61" d="M 2106 1575 
Q 1756 1575 1579 1456 
Q 1403 1338 1403 1106 
Q 1403 894 1545 773 
Q 1688 653 1941 653 
Q 2256 653 2472 879 
Q 2688 1106 2688 1447 
L 2688 1575 
L 2106 1575 
z
M 3816 1997 
L 3816 0 
L 2688 0 
L 2688 519 
Q 2463 200 2181 54 
Q 1900 -91 1497 -91 
Q 953 -91 614 226 
Q 275 544 275 1050 
Q 275 1666 698 1953 
Q 1122 2241 2028 2241 
L 2688 2241 
L 2688 2328 
Q 2688 2594 2478 2717 
Q 2269 2841 1825 2841 
Q 1466 2841 1156 2769 
Q 847 2697 581 2553 
L 581 3406 
Q 941 3494 1303 3539 
Q 1666 3584 2028 3584 
Q 2975 3584 3395 3211 
Q 3816 2838 3816 1997 
z
" transform="scale(0.015625)"/>
      <path id="DejaVuSans-Bold-70" d="M 1656 506 
L 1656 -1331 
L 538 -1331 
L 538 3500 
L 1656 3500 
L 1656 2988 
Q 1888 3294 2169 3439 
Q 2450 3584 2816 3584 
Q 3463 3584 3878 3070 
Q 4294 2556 4294 1747 
Q 4294 938 3878 423 
Q 3463 -91 2816 -91 
Q 2450 -91 2169 54 
Q 1888 200 1656 506 
z
M 2400 2772 
Q 2041 2772 1848 2508 
Q 1656 2244 1656 1747 
Q 1656 1250 1848 986 
Q 2041 722 2400 722 
Q 2759 722 2948 984 
Q 3138 1247 3138 1747 
Q 3138 2247 2948 2509 
Q 2759 2772 2400 2772 
z
" transform="scale(0.015625)"/>
      <path id="DejaVuSans-Bold-74" d="M 1759 4494 
L 1759 3500 
L 2913 3500 
L 2913 2700 
L 1759 2700 
L 1759 1216 
Q 1759 972 1856 886 
Q 1953 800 2241 800 
L 2816 800 
L 2816 0 
L 1856 0 
Q 1194 0 917 276 
Q 641 553 641 1216 
L 641 2700 
L 84 2700 
L 84 3500 
L 641 3500 
L 641 4494 
L 1759 4494 
z
" transform="scale(0.015625)"/>
      <path id="DejaVuSans-Bold-69" d="M 538 3500 
L 1656 3500 
L 1656 0 
L 538 0 
L 538 3500 
z
M 538 4863 
L 1656 4863 
L 1656 3950 
L 538 3950 
L 538 4863 
z
" transform="scale(0.015625)"/>
      <path id="DejaVuSans-Bold-6e" d="M 4056 2131 
L 4056 0 
L 2931 0 
L 2931 347 
L 2931 1631 
Q 2931 2084 2911 2256 
Q 2891 2428 2841 2509 
Q 2775 2619 2662 2680 
Q 2550 2741 2406 2741 
Q 2056 2741 1856 2470 
Q 1656 2200 1656 1722 
L 1656 0 
L 538 0 
L 538 3500 
L 1656 3500 
L 1656 2988 
Q 1909 3294 2193 3439 
Q 2478 3584 2822 3584 
Q 3428 3584 3742 3212 
Q 4056 2841 4056 2131 
z
" transform="scale(0.015625)"/>
      <path id="DejaVuSans-Bold-6c" d="M 538 4863 
L 1656 4863 
L 1656 0 
L 538 0 
L 538 4863 
z
" transform="scale(0.015625)"/>
      <path id="DejaVuSans-Bold-79" d="M 78 3500 
L 1197 3500 
L 2138 1125 
L 2938 3500 
L 4056 3500 
L 2584 -331 
Q 2363 -916 2067 -1148 
Q 1772 -1381 1288 -1381 
L 641 -1381 
L 641 -647 
L 991 -647 
Q 1275 -647 1404 -556 
Q 1534 -466 1606 -231 
L 1638 -134 
L 78 3500 
z
" transform="scale(0.015625)"/>
      <path id="DejaVuSans-Bold-73" d="M 3272 3391 
L 3272 2541 
Q 2913 2691 2578 2766 
Q 2244 2841 1947 2841 
Q 1628 2841 1473 2761 
Q 1319 2681 1319 2516 
Q 1319 2381 1436 2309 
Q 1553 2238 1856 2203 
L 2053 2175 
Q 2913 2066 3209 1816 
Q 3506 1566 3506 1031 
Q 3506 472 3093 190 
Q 2681 -91 1863 -91 
Q 1516 -91 1145 -36 
Q 775 19 384 128 
L 384 978 
Q 719 816 1070 734 
Q 1422 653 1784 653 
Q 2113 653 2278 743 
Q 2444 834 2444 1013 
Q 2444 1163 2330 1236 
Q 2216 1309 1875 1350 
L 1678 1375 
Q 931 1469 631 1722 
Q 331 1975 331 2491 
Q 331 3047 712 3315 
Q 1094 3584 1881 3584 
Q 2191 3584 2531 3537 
Q 2872 3491 3272 3391 
z
" transform="scale(0.015625)"/>
      <path id="DejaVuSans-Bold-68" d="M 4056 2131 
L 4056 0 
L 2931 0 
L 2931 347 
L 2931 1625 
Q 2931 2084 2911 2256 
Q 2891 2428 2841 2509 
Q 2775 2619 2662 2680 
Q 2550 2741 2406 2741 
Q 2056 2741 1856 2470 
Q 1656 2200 1656 1722 
L 1656 0 
L 538 0 
L 538 4863 
L 1656 4863 
L 1656 2988 
Q 1909 3294 2193 3439 
Q 2478 3584 2822 3584 
Q 3428 3584 3742 3212 
Q 4056 2841 4056 2131 
z
" transform="scale(0.015625)"/>
      <path id="DejaVuSans-Bold-65" d="M 4031 1759 
L 4031 1441 
L 1416 1441 
Q 1456 1047 1700 850 
Q 1944 653 2381 653 
Q 2734 653 3104 758 
Q 3475 863 3866 1075 
L 3866 213 
Q 3469 63 3072 -14 
Q 2675 -91 2278 -91 
Q 1328 -91 801 392 
Q 275 875 275 1747 
Q 275 2603 792 3093 
Q 1309 3584 2216 3584 
Q 3041 3584 3536 3087 
Q 4031 2591 4031 1759 
z
M 2881 2131 
Q 2881 2450 2695 2645 
Q 2509 2841 2209 2841 
Q 1884 2841 1681 2658 
Q 1478 2475 1428 2131 
L 2881 2131 
z
" transform="scale(0.015625)"/>
      <path id="DejaVuSans-Bold-72" d="M 3138 2547 
Q 2991 2616 2845 2648 
Q 2700 2681 2553 2681 
Q 2122 2681 1889 2404 
Q 1656 2128 1656 1613 
L 1656 0 
L 538 0 
L 538 3500 
L 1656 3500 
L 1656 2925 
Q 1872 3269 2151 3426 
Q 2431 3584 2822 3584 
Q 2878 3584 2943 3579 
Q 3009 3575 3134 3559 
L 3138 2547 
z
" transform="scale(0.015625)"/>
      <path id="DejaVuSans-Bold-64" d="M 2919 2988 
L 2919 4863 
L 4044 4863 
L 4044 0 
L 2919 0 
L 2919 506 
Q 2688 197 2409 53 
Q 2131 -91 1766 -91 
Q 1119 -91 703 423 
Q 288 938 288 1747 
Q 288 2556 703 3070 
Q 1119 3584 1766 3584 
Q 2128 3584 2408 3439 
Q 2688 3294 2919 2988 
z
M 2181 722 
Q 2541 722 2730 984 
Q 2919 1247 2919 1747 
Q 2919 2247 2730 2509 
Q 2541 2772 2181 2772 
Q 1825 2772 1636 2509 
Q 1447 2247 1447 1747 
Q 1447 1247 1636 984 
Q 1825 722 2181 722 
z
" transform="scale(0.015625)"/>
      <path id="DejaVuSans-Bold-66" d="M 2841 4863 
L 2841 4128 
L 2222 4128 
Q 1984 4128 1890 4042 
Q 1797 3956 1797 3744 
L 1797 3500 
L 2753 3500 
L 2753 2700 
L 1797 2700 
L 1797 0 
L 678 0 
L 678 2700 
L 122 2700 
L 122 3500 
L 678 3500 
L 678 3744 
Q 678 4316 997 4589 
Q 1316 4863 1984 4863 
L 2841 4863 
z
" transform="scale(0.015625)"/>
      <path id="DejaVuSans-Bold-75" d="M 500 1363 
L 500 3500 
L 1625 3500 
L 1625 3150 
Q 1625 2866 1622 2436 
Q 1619 2006 1619 1863 
Q 1619 1441 1641 1255 
Q 1663 1069 1716 984 
Q 1784 875 1895 815 
Q 2006 756 2150 756 
Q 2500 756 2700 1025 
Q 2900 1294 2900 1772 
L 2900 3500 
L 4019 3500 
L 4019 0 
L 2900 0 
L 2900 506 
Q 2647 200 2364 54 
Q 2081 -91 1741 -91 
Q 1134 -91 817 281 
Q 500 653 500 1363 
z
" transform="scale(0.015625)"/>
      <path id="DejaVuSans-Bold-6d" d="M 3781 2919 
Q 3994 3244 4286 3414 
Q 4578 3584 4928 3584 
Q 5531 3584 5847 3212 
Q 6163 2841 6163 2131 
L 6163 0 
L 5038 0 
L 5038 1825 
Q 5041 1866 5042 1909 
Q 5044 1953 5044 2034 
Q 5044 2406 4934 2573 
Q 4825 2741 4581 2741 
Q 4263 2741 4089 2478 
Q 3916 2216 3909 1719 
L 3909 0 
L 2784 0 
L 2784 1825 
Q 2784 2406 2684 2573 
Q 2584 2741 2328 2741 
Q 2006 2741 1831 2477 
Q 1656 2213 1656 1722 
L 1656 0 
L 531 0 
L 531 3500 
L 1656 3500 
L 1656 2988 
Q 1863 3284 2130 3434 
Q 2397 3584 2719 3584 
Q 3081 3584 3359 3409 
Q 3638 3234 3781 2919 
z
" transform="scale(0.015625)"/>
     </defs>
     <use xlink:href="#DejaVuSans-Bold-48"/>
     <use xlink:href="#DejaVuSans-Bold-6f" transform="translate(83.691406 0)"/>
     <use xlink:href="#DejaVuSans-Bold-77" transform="translate(152.392578 0)"/>
     <use xlink:href="#DejaVuSans-Bold-20" transform="translate(244.775391 0)"/>
     <use xlink:href="#DejaVuSans-Bold-63" transform="translate(279.589844 0)"/>
     <use xlink:href="#DejaVuSans-Bold-61" transform="translate(338.867188 0)"/>
     <use xlink:href="#DejaVuSans-Bold-70" transform="translate(406.347656 0)"/>
     <use xlink:href="#DejaVuSans-Bold-74" transform="translate(477.929688 0)"/>
     <use xlink:href="#DejaVuSans-Bold-69" transform="translate(525.732422 0)"/>
     <use xlink:href="#DejaVuSans-Bold-6f" transform="translate(560.009766 0)"/>
     <use xlink:href="#DejaVuSans-Bold-6e" transform="translate(628.710938 0)"/>
     <use xlink:href="#DejaVuSans-Bold-20" transform="translate(699.902344 0)"/>
     <use xlink:href="#DejaVuSans-Bold-70" transform="translate(734.716797 0)"/>
     <use xlink:href="#DejaVuSans-Bold-6f" transform="translate(806.298828 0)"/>
     <use xlink:href="#DejaVuSans-Bold-6c" transform="translate(875 0)"/>
     <use xlink:href="#DejaVuSans-Bold-69" transform="translate(909.277344 0)"/>
     <use xlink:href="#DejaVuSans-Bold-63" transform="translate(943.554688 0)"/>
     <use xlink:href="#DejaVuSans-Bold-79" transform="translate(1002.832031 0)"/>
     <use xlink:href="#DejaVuSans-Bold-20" transform="translate(1068.017578 0)"/>
     <use xlink:href="#DejaVuSans-Bold-73" transform="translate(1102.832031 0)"/>
     <use xlink:href="#DejaVuSans-Bold-68" transform="translate(1162.353516 0)"/>
     <use xlink:href="#DejaVuSans-Bold-61" transform="translate(1233.544922 0)"/>
     <use xlink:href="#DejaVuSans-Bold-70" transform="translate(1301.025391 0)"/>
     <use xlink:href="#DejaVuSans-Bold-65" transform="translate(1372.607422 0)"/>
     <use xlink:href="#DejaVuSans-Bold-73" transform="translate(1440.429688 0)"/>
     <use xlink:href="#DejaVuSans-Bold-20" transform="translate(1499.951172 0)"/>
     <use xlink:href="#DejaVuSans-Bold-6c" transform="translate(1534.765625 0)"/>
     <use xlink:href="#DejaVuSans-Bold-65" transform="translate(1569.042969 0)"/>
     <use xlink:href="#DejaVuSans-Bold-61" transform="translate(1636.865234 0)"/>
     <use xlink:href="#DejaVuSans-Bold-72" transform="translate(1704.345703 0)"/>
     <use xlink:href="#DejaVuSans-Bold-6e" transform="translate(1753.662109 0)"/>
     <use xlink:href="#DejaVuSans-Bold-65" transform="translate(1824.853516 0)"/>
     <use xlink:href="#DejaVuSans-Bold-64" transform="translate(1892.675781 0)"/>
     <use xlink:href="#DejaVuSans-Bold-20" transform="translate(1964.257812 0)"/>
     <use xlink:href="#DejaVuSans-Bold-66" transform="translate(1999.072266 0)"/>
     <use xlink:href="#DejaVuSans-Bold-65" transform="translate(2042.578125 0)"/>
     <use xlink:href="#DejaVuSans-Bold-61" transform="translate(2110.400391 0)"/>
     <use xlink:href="#DejaVuSans-Bold-74" transform="translate(2177.880859 0)"/>
     <use xlink:href="#DejaVuSans-Bold-75" transform="translate(2225.683594 0)"/>
     <use xlink:href="#DejaVuSans-Bold-72" transform="translate(2296.875 0)"/>
     <use xlink:href="#DejaVuSans-Bold-65" transform="translate(2346.191406 0)"/>
     <use xlink:href="#DejaVuSans-Bold-73" transform="translate(2414.013672 0)"/>
     <use xlink:href="#DejaVuSans-Bold-20" transform="translate(2473.535156 0)"/>
     <use xlink:href="#DejaVuSans-Bold-61" transform="translate(2508.349609 0)"/>
     <use xlink:href="#DejaVuSans-Bold-6e" transform="translate(2575.830078 0)"/>
     <use xlink:href="#DejaVuSans-Bold-64" transform="translate(2647.021484 0)"/>
     <use xlink:href="#DejaVuSans-Bold-20" transform="translate(2718.603516 0)"/>
     <use xlink:href="#DejaVuSans-Bold-6f" transform="translate(2753.417969 0)"/>
     <use xlink:href="#DejaVuSans-Bold-75" transform="translate(2822.119141 0)"/>
     <use xlink:href="#DejaVuSans-Bold-74" transform="translate(2893.310547 0)"/>
     <use xlink:href="#DejaVuSans-Bold-63" transform="translate(2941.113281 0)"/>
     <use xlink:href="#DejaVuSans-Bold-6f" transform="translate(3000.390625 0)"/>
     <use xlink:href="#DejaVuSans-Bold-6d" transform="translate(3069.091797 0)"/>
     <use xlink:href="#DejaVuSans-Bold-65" transform="translate(3173.291016 0)"/>
     <use xlink:href="#DejaVuSans-Bold-73" transform="translate(3241.113281 0)"/>
    </g>
    <!--  -->
    <g transform="translate(383.85 37.399) scale(0.16 -0.16)"/>
   </g>
   <g id="text_2">
    <!-- Caption policy -->
    <g transform="translate(74.303391 57.596392) scale(0.15 -0.15)">
     <defs>
      <path id="DejaVuSans-43" d="M 4122 4306 
L 4122 3641 
Q 3803 3938 3442 4084 
Q 3081 4231 2675 4231 
Q 1875 4231 1450 3742 
Q 1025 3253 1025 2328 
Q 1025 1406 1450 917 
Q 1875 428 2675 428 
Q 3081 428 3442 575 
Q 3803 722 4122 1019 
L 4122 359 
Q 3791 134 3420 21 
Q 3050 -91 2638 -91 
Q 1578 -91 968 557 
Q 359 1206 359 2328 
Q 359 3453 968 4101 
Q 1578 4750 2638 4750 
Q 3056 4750 3426 4639 
Q 3797 4528 4122 4306 
z
" transform="scale(0.015625)"/>
      <path id="DejaVuSans-61" d="M 2194 1759 
Q 1497 1759 1228 1600 
Q 959 1441 959 1056 
Q 959 750 1161 570 
Q 1363 391 1709 391 
Q 2188 391 2477 730 
Q 2766 1069 2766 1631 
L 2766 1759 
L 2194 1759 
z
M 3341 1997 
L 3341 0 
L 2766 0 
L 2766 531 
Q 2569 213 2275 61 
Q 1981 -91 1556 -91 
Q 1019 -91 701 211 
Q 384 513 384 1019 
Q 384 1609 779 1909 
Q 1175 2209 1959 2209 
L 2766 2209 
L 2766 2266 
Q 2766 2663 2505 2880 
Q 2244 3097 1772 3097 
Q 1472 3097 1187 3025 
Q 903 2953 641 2809 
L 641 3341 
Q 956 3463 1253 3523 
Q 1550 3584 1831 3584 
Q 2591 3584 2966 3190 
Q 3341 2797 3341 1997 
z
" transform="scale(0.015625)"/>
      <path id="DejaVuSans-70" d="M 1159 525 
L 1159 -1331 
L 581 -1331 
L 581 3500 
L 1159 3500 
L 1159 2969 
Q 1341 3281 1617 3432 
Q 1894 3584 2278 3584 
Q 2916 3584 3314 3078 
Q 3713 2572 3713 1747 
Q 3713 922 3314 415 
Q 2916 -91 2278 -91 
Q 1894 -91 1617 61 
Q 1341 213 1159 525 
z
M 3116 1747 
Q 3116 2381 2855 2742 
Q 2594 3103 2138 3103 
Q 1681 3103 1420 2742 
Q 1159 2381 1159 1747 
Q 1159 1113 1420 752 
Q 1681 391 2138 391 
Q 2594 391 2855 752 
Q 3116 1113 3116 1747 
z
" transform="scale(0.015625)"/>
      <path id="DejaVuSans-74" d="M 1172 4494 
L 1172 3500 
L 2356 3500 
L 2356 3053 
L 1172 3053 
L 1172 1153 
Q 1172 725 1289 603 
Q 1406 481 1766 481 
L 2356 481 
L 2356 0 
L 1766 0 
Q 1100 0 847 248 
Q 594 497 594 1153 
L 594 3053 
L 172 3053 
L 172 3500 
L 594 3500 
L 594 4494 
L 1172 4494 
z
" transform="scale(0.015625)"/>
      <path id="DejaVuSans-69" d="M 603 3500 
L 1178 3500 
L 1178 0 
L 603 0 
L 603 3500 
z
M 603 4863 
L 1178 4863 
L 1178 4134 
L 603 4134 
L 603 4863 
z
" transform="scale(0.015625)"/>
      <path id="DejaVuSans-6f" d="M 1959 3097 
Q 1497 3097 1228 2736 
Q 959 2375 959 1747 
Q 959 1119 1226 758 
Q 1494 397 1959 397 
Q 2419 397 2687 759 
Q 2956 1122 2956 1747 
Q 2956 2369 2687 2733 
Q 2419 3097 1959 3097 
z
M 1959 3584 
Q 2709 3584 3137 3096 
Q 3566 2609 3566 1747 
Q 3566 888 3137 398 
Q 2709 -91 1959 -91 
Q 1206 -91 779 398 
Q 353 888 353 1747 
Q 353 2609 779 3096 
Q 1206 3584 1959 3584 
z
" transform="scale(0.015625)"/>
      <path id="DejaVuSans-6e" d="M 3513 2113 
L 3513 0 
L 2938 0 
L 2938 2094 
Q 2938 2591 2744 2837 
Q 2550 3084 2163 3084 
Q 1697 3084 1428 2787 
Q 1159 2491 1159 1978 
L 1159 0 
L 581 0 
L 581 3500 
L 1159 3500 
L 1159 2956 
Q 1366 3272 1645 3428 
Q 1925 3584 2291 3584 
Q 2894 3584 3203 3211 
Q 3513 2838 3513 2113 
z
" transform="scale(0.015625)"/>
      <path id="DejaVuSans-20" transform="scale(0.015625)"/>
      <path id="DejaVuSans-6c" d="M 603 4863 
L 1178 4863 
L 1178 0 
L 603 0 
L 603 4863 
z
" transform="scale(0.015625)"/>
      <path id="DejaVuSans-63" d="M 3122 3366 
L 3122 2828 
Q 2878 2963 2633 3030 
Q 2388 3097 2138 3097 
Q 1578 3097 1268 2742 
Q 959 2388 959 1747 
Q 959 1106 1268 751 
Q 1578 397 2138 397 
Q 2388 397 2633 464 
Q 2878 531 3122 666 
L 3122 134 
Q 2881 22 2623 -34 
Q 2366 -91 2075 -91 
Q 1284 -91 818 406 
Q 353 903 353 1747 
Q 353 2603 823 3093 
Q 1294 3584 2113 3584 
Q 2378 3584 2631 3529 
Q 2884 3475 3122 3366 
z
" transform="scale(0.015625)"/>
      <path id="DejaVuSans-79" d="M 2059 -325 
Q 1816 -950 1584 -1140 
Q 1353 -1331 966 -1331 
L 506 -1331 
L 506 -850 
L 844 -850 
Q 1081 -850 1212 -737 
Q 1344 -625 1503 -206 
L 1606 56 
L 191 3500 
L 800 3500 
L 1894 763 
L 2988 3500 
L 3597 3500 
L 2059 -325 
z
" transform="scale(0.015625)"/>
     </defs>
     <use xlink:href="#DejaVuSans-43"/>
     <use xlink:href="#DejaVuSans-61" transform="translate(69.824219 0)"/>
     <use xlink:href="#DejaVuSans-70" transform="translate(131.103516 0)"/>
     <use xlink:href="#DejaVuSans-74" transform="translate(194.580078 0)"/>
     <use xlink:href="#DejaVuSans-69" transform="translate(233.789062 0)"/>
     <use xlink:href="#DejaVuSans-6f" transform="translate(261.572266 0)"/>
     <use xlink:href="#DejaVuSans-6e" transform="translate(322.753906 0)"/>
     <use xlink:href="#DejaVuSans-20" transform="translate(386.132812 0)"/>
     <use xlink:href="#DejaVuSans-70" transform="translate(417.919922 0)"/>
     <use xlink:href="#DejaVuSans-6f" transform="translate(481.396484 0)"/>
     <use xlink:href="#DejaVuSans-6c" transform="translate(542.578125 0)"/>
     <use xlink:href="#DejaVuSans-69" transform="translate(570.361328 0)"/>
     <use xlink:href="#DejaVuSans-63" transform="translate(598.144531 0)"/>
     <use xlink:href="#DejaVuSans-79" transform="translate(653.125 0)"/>
    </g>
   </g>
   <g id="text_3">
    <!-- Learned features -->
    <g transform="translate(335.211703 57.596392) scale(0.15 -0.15)">
     <defs>
      <path id="DejaVuSans-4c" d="M 628 4666 
L 1259 4666 
L 1259 531 
L 3531 531 
L 3531 0 
L 628 0 
L 628 4666 
z
" transform="scale(0.015625)"/>
      <path id="DejaVuSans-65" d="M 3597 1894 
L 3597 1613 
L 953 1613 
Q 991 1019 1311 708 
Q 1631 397 2203 397 
Q 2534 397 2845 478 
Q 3156 559 3463 722 
L 3463 178 
Q 3153 47 2828 -22 
Q 2503 -91 2169 -91 
Q 1331 -91 842 396 
Q 353 884 353 1716 
Q 353 2575 817 3079 
Q 1281 3584 2069 3584 
Q 2775 3584 3186 3129 
Q 3597 2675 3597 1894 
z
M 3022 2063 
Q 3016 2534 2758 2815 
Q 2500 3097 2075 3097 
Q 1594 3097 1305 2825 
Q 1016 2553 972 2059 
L 3022 2063 
z
" transform="scale(0.015625)"/>
      <path id="DejaVuSans-72" d="M 2631 2963 
Q 2534 3019 2420 3045 
Q 2306 3072 2169 3072 
Q 1681 3072 1420 2755 
Q 1159 2438 1159 1844 
L 1159 0 
L 581 0 
L 581 3500 
L 1159 3500 
L 1159 2956 
Q 1341 3275 1631 3429 
Q 1922 3584 2338 3584 
Q 2397 3584 2469 3576 
Q 2541 3569 2628 3553 
L 2631 2963 
z
" transform="scale(0.015625)"/>
      <path id="DejaVuSans-64" d="M 2906 2969 
L 2906 4863 
L 3481 4863 
L 3481 0 
L 2906 0 
L 2906 525 
Q 2725 213 2448 61 
Q 2172 -91 1784 -91 
Q 1150 -91 751 415 
Q 353 922 353 1747 
Q 353 2572 751 3078 
Q 1150 3584 1784 3584 
Q 2172 3584 2448 3432 
Q 2725 3281 2906 2969 
z
M 947 1747 
Q 947 1113 1208 752 
Q 1469 391 1925 391 
Q 2381 391 2643 752 
Q 2906 1113 2906 1747 
Q 2906 2381 2643 2742 
Q 2381 3103 1925 3103 
Q 1469 3103 1208 2742 
Q 947 2381 947 1747 
z
" transform="scale(0.015625)"/>
      <path id="DejaVuSans-66" d="M 2375 4863 
L 2375 4384 
L 1825 4384 
Q 1516 4384 1395 4259 
Q 1275 4134 1275 3809 
L 1275 3500 
L 2222 3500 
L 2222 3053 
L 1275 3053 
L 1275 0 
L 697 0 
L 697 3053 
L 147 3053 
L 147 3500 
L 697 3500 
L 697 3744 
Q 697 4328 969 4595 
Q 1241 4863 1831 4863 
L 2375 4863 
z
" transform="scale(0.015625)"/>
      <path id="DejaVuSans-75" d="M 544 1381 
L 544 3500 
L 1119 3500 
L 1119 1403 
Q 1119 906 1312 657 
Q 1506 409 1894 409 
Q 2359 409 2629 706 
Q 2900 1003 2900 1516 
L 2900 3500 
L 3475 3500 
L 3475 0 
L 2900 0 
L 2900 538 
Q 2691 219 2414 64 
Q 2138 -91 1772 -91 
Q 1169 -91 856 284 
Q 544 659 544 1381 
z
M 1991 3584 
L 1991 3584 
z
" transform="scale(0.015625)"/>
      <path id="DejaVuSans-73" d="M 2834 3397 
L 2834 2853 
Q 2591 2978 2328 3040 
Q 2066 3103 1784 3103 
Q 1356 3103 1142 2972 
Q 928 2841 928 2578 
Q 928 2378 1081 2264 
Q 1234 2150 1697 2047 
L 1894 2003 
Q 2506 1872 2764 1633 
Q 3022 1394 3022 966 
Q 3022 478 2636 193 
Q 2250 -91 1575 -91 
Q 1294 -91 989 -36 
Q 684 19 347 128 
L 347 722 
Q 666 556 975 473 
Q 1284 391 1588 391 
Q 1994 391 2212 530 
Q 2431 669 2431 922 
Q 2431 1156 2273 1281 
Q 2116 1406 1581 1522 
L 1381 1569 
Q 847 1681 609 1914 
Q 372 2147 372 2553 
Q 372 3047 722 3315 
Q 1072 3584 1716 3584 
Q 2034 3584 2315 3537 
Q 2597 3491 2834 3397 
z
" transform="scale(0.015625)"/>
     </defs>
     <use xlink:href="#DejaVuSans-4c"/>
     <use xlink:href="#DejaVuSans-65" transform="translate(53.962891 0)"/>
     <use xlink:href="#DejaVuSans-61" transform="translate(115.486328 0)"/>
     <use xlink:href="#DejaVuSans-72" transform="translate(176.765625 0)"/>
     <use xlink:href="#DejaVuSans-6e" transform="translate(216.128906 0)"/>
     <use xlink:href="#DejaVuSans-65" transform="translate(279.507812 0)"/>
     <use xlink:href="#DejaVuSans-64" transform="translate(341.03125 0)"/>
     <use xlink:href="#DejaVuSans-20" transform="translate(404.507812 0)"/>
     <use xlink:href="#DejaVuSans-66" transform="translate(436.294922 0)"/>
     <use xlink:href="#DejaVuSans-65" transform="translate(471.5 0)"/>
     <use xlink:href="#DejaVuSans-61" transform="translate(533.023438 0)"/>
     <use xlink:href="#DejaVuSans-74" transform="translate(594.302734 0)"/>
     <use xlink:href="#DejaVuSans-75" transform="translate(633.511719 0)"/>
     <use xlink:href="#DejaVuSans-72" transform="translate(696.890625 0)"/>
     <use xlink:href="#DejaVuSans-65" transform="translate(735.753906 0)"/>
     <use xlink:href="#DejaVuSans-73" transform="translate(797.277344 0)"/>
    </g>
   </g>
   <g id="text_4">
    <!-- Outcomes -->
    <g transform="translate(601.8345 57.596392) scale(0.15 -0.15)">
     <defs>
      <path id="DejaVuSans-4f" d="M 2522 4238 
Q 1834 4238 1429 3725 
Q 1025 3213 1025 2328 
Q 1025 1447 1429 934 
Q 1834 422 2522 422 
Q 3209 422 3611 934 
Q 4013 1447 4013 2328 
Q 4013 3213 3611 3725 
Q 3209 4238 2522 4238 
z
M 2522 4750 
Q 3503 4750 4090 4092 
Q 4678 3434 4678 2328 
Q 4678 1225 4090 567 
Q 3503 -91 2522 -91 
Q 1538 -91 948 565 
Q 359 1222 359 2328 
Q 359 3434 948 4092 
Q 1538 4750 2522 4750 
z
" transform="scale(0.015625)"/>
      <path id="DejaVuSans-6d" d="M 3328 2828 
Q 3544 3216 3844 3400 
Q 4144 3584 4550 3584 
Q 5097 3584 5394 3201 
Q 5691 2819 5691 2113 
L 5691 0 
L 5113 0 
L 5113 2094 
Q 5113 2597 4934 2840 
Q 4756 3084 4391 3084 
Q 3944 3084 3684 2787 
Q 3425 2491 3425 1978 
L 3425 0 
L 2847 0 
L 2847 2094 
Q 2847 2600 2669 2842 
Q 2491 3084 2119 3084 
Q 1678 3084 1418 2786 
Q 1159 2488 1159 1978 
L 1159 0 
L 581 0 
L 581 3500 
L 1159 3500 
L 1159 2956 
Q 1356 3278 1631 3431 
Q 1906 3584 2284 3584 
Q 2666 3584 2933 3390 
Q 3200 3197 3328 2828 
z
" transform="scale(0.015625)"/>
     </defs>
     <use xlink:href="#DejaVuSans-4f"/>
     <use xlink:href="#DejaVuSans-75" transform="translate(78.710938 0)"/>
     <use xlink:href="#DejaVuSans-74" transform="translate(142.089844 0)"/>
     <use xlink:href="#DejaVuSans-63" transform="translate(181.298828 0)"/>
     <use xlink:href="#DejaVuSans-6f" transform="translate(236.279297 0)"/>
     <use xlink:href="#DejaVuSans-6d" transform="translate(297.460938 0)"/>
     <use xlink:href="#DejaVuSans-65" transform="translate(394.873047 0)"/>
     <use xlink:href="#DejaVuSans-73" transform="translate(456.396484 0)"/>
    </g>
   </g>
   <g id="text_5">
    <!-- Faithful captions -->
    <g transform="translate(70.920188 127.998532) scale(0.12 -0.12)">
     <defs>
      <path id="DejaVuSans-Bold-46" d="M 588 4666 
L 3834 4666 
L 3834 3756 
L 1791 3756 
L 1791 2888 
L 3713 2888 
L 3713 1978 
L 1791 1978 
L 1791 0 
L 588 0 
L 588 4666 
z
" transform="scale(0.015625)"/>
     </defs>
     <use xlink:href="#DejaVuSans-Bold-46"/>
     <use xlink:href="#DejaVuSans-Bold-61" transform="translate(62.435547 0)"/>
     <use xlink:href="#DejaVuSans-Bold-69" transform="translate(129.916016 0)"/>
     <use xlink:href="#DejaVuSans-Bold-74" transform="translate(164.193359 0)"/>
     <use xlink:href="#DejaVuSans-Bold-68" transform="translate(211.996094 0)"/>
     <use xlink:href="#DejaVuSans-Bold-66" transform="translate(283.1875 0)"/>
     <use xlink:href="#DejaVuSans-Bold-75" transform="translate(326.693359 0)"/>
     <use xlink:href="#DejaVuSans-Bold-6c" transform="translate(397.884766 0)"/>
     <use xlink:href="#DejaVuSans-Bold-20" transform="translate(432.162109 0)"/>
     <use xlink:href="#DejaVuSans-Bold-63" transform="translate(466.976562 0)"/>
     <use xlink:href="#DejaVuSans-Bold-61" transform="translate(526.253906 0)"/>
     <use xlink:href="#DejaVuSans-Bold-70" transform="translate(593.734375 0)"/>
     <use xlink:href="#DejaVuSans-Bold-74" transform="translate(665.316406 0)"/>
     <use xlink:href="#DejaVuSans-Bold-69" transform="translate(713.119141 0)"/>
     <use xlink:href="#DejaVuSans-Bold-6f" transform="translate(747.396484 0)"/>
     <use xlink:href="#DejaVuSans-Bold-6e" transform="translate(816.097656 0)"/>
     <use xlink:href="#DejaVuSans-Bold-73" transform="translate(887.289062 0)"/>
    </g>
    <!-- (complete &amp; factual) -->
    <g transform="translate(58.083 141.435907) scale(0.12 -0.12)">
     <defs>
      <path id="DejaVuSans-Bold-28" d="M 2413 -844 
L 1484 -844 
Q 1006 -72 778 623 
Q 550 1319 550 2003 
Q 550 2688 779 3389 
Q 1009 4091 1484 4856 
L 2413 4856 
Q 2013 4116 1813 3408 
Q 1613 2700 1613 2009 
Q 1613 1319 1811 609 
Q 2009 -100 2413 -844 
z
" transform="scale(0.015625)"/>
      <path id="DejaVuSans-Bold-26" d="M 2497 3097 
L 3775 1691 
Q 3941 1909 4027 2181 
Q 4113 2453 4128 2797 
L 5100 2797 
Q 5053 2228 4879 1784 
Q 4706 1341 4397 1006 
L 5313 0 
L 3988 0 
L 3681 341 
Q 3353 122 2990 15 
Q 2628 -91 2222 -91 
Q 1400 -91 892 342 
Q 384 775 384 1459 
Q 384 1916 607 2267 
Q 831 2619 1338 2950 
Q 1206 3116 1143 3281 
Q 1081 3447 1081 3628 
Q 1081 4138 1478 4444 
Q 1875 4750 2534 4750 
Q 2819 4750 3126 4704 
Q 3434 4659 3769 4569 
L 3769 3700 
Q 3475 3850 3212 3922 
Q 2950 3994 2700 3994 
Q 2459 3994 2326 3901 
Q 2194 3809 2194 3641 
Q 2194 3534 2270 3398 
Q 2347 3263 2497 3097 
z
M 1875 2322 
Q 1672 2175 1569 1989 
Q 1466 1803 1466 1581 
Q 1466 1222 1731 969 
Q 1997 716 2369 716 
Q 2578 716 2759 780 
Q 2941 844 3097 972 
L 1875 2322 
z
" transform="scale(0.015625)"/>
      <path id="DejaVuSans-Bold-29" d="M 513 -844 
Q 913 -100 1113 609 
Q 1313 1319 1313 2009 
Q 1313 2700 1113 3408 
Q 913 4116 513 4856 
L 1441 4856 
Q 1916 4091 2145 3389 
Q 2375 2688 2375 2003 
Q 2375 1319 2147 623 
Q 1919 -72 1441 -844 
L 513 -844 
z
" transform="scale(0.015625)"/>
     </defs>
     <use xlink:href="#DejaVuSans-Bold-28"/>
     <use xlink:href="#DejaVuSans-Bold-63" transform="translate(45.703125 0)"/>
     <use xlink:href="#DejaVuSans-Bold-6f" transform="translate(104.980469 0)"/>
     <use xlink:href="#DejaVuSans-Bold-6d" transform="translate(173.681641 0)"/>
     <use xlink:href="#DejaVuSans-Bold-70" transform="translate(277.880859 0)"/>
     <use xlink:href="#DejaVuSans-Bold-6c" transform="translate(349.462891 0)"/>
     <use xlink:href="#DejaVuSans-Bold-65" transform="translate(383.740234 0)"/>
     <use xlink:href="#DejaVuSans-Bold-74" transform="translate(451.5625 0)"/>
     <use xlink:href="#DejaVuSans-Bold-65" transform="translate(499.365234 0)"/>
     <use xlink:href="#DejaVuSans-Bold-20" transform="translate(567.1875 0)"/>
     <use xlink:href="#DejaVuSans-Bold-26" transform="translate(602.001953 0)"/>
     <use xlink:href="#DejaVuSans-Bold-20" transform="translate(689.208984 0)"/>
     <use xlink:href="#DejaVuSans-Bold-66" transform="translate(724.023438 0)"/>
     <use xlink:href="#DejaVuSans-Bold-61" transform="translate(767.529297 0)"/>
     <use xlink:href="#DejaVuSans-Bold-63" transform="translate(835.009766 0)"/>
     <use xlink:href="#DejaVuSans-Bold-74" transform="translate(894.287109 0)"/>
     <use xlink:href="#DejaVuSans-Bold-75" transform="translate(942.089844 0)"/>
     <use xlink:href="#DejaVuSans-Bold-61" transform="translate(1013.28125 0)"/>
     <use xlink:href="#DejaVuSans-Bold-6c" transform="translate(1080.761719 0)"/>
     <use xlink:href="#DejaVuSans-Bold-29" transform="translate(1115.039062 0)"/>
    </g>
   </g>
   <g id="text_6">
    <!-- Noisy / biased captions -->
    <g transform="translate(49.46175 241.714537) scale(0.12 -0.12)">
     <defs>
      <path id="DejaVuSans-Bold-4e" d="M 588 4666 
L 1931 4666 
L 3628 1466 
L 3628 4666 
L 4769 4666 
L 4769 0 
L 3425 0 
L 1728 3200 
L 1728 0 
L 588 0 
L 588 4666 
z
" transform="scale(0.015625)"/>
      <path id="DejaVuSans-Bold-2f" d="M 1644 4666 
L 2338 4666 
L 691 -594 
L 0 -594 
L 1644 4666 
z
" transform="scale(0.015625)"/>
      <path id="DejaVuSans-Bold-62" d="M 2400 722 
Q 2759 722 2948 984 
Q 3138 1247 3138 1747 
Q 3138 2247 2948 2509 
Q 2759 2772 2400 2772 
Q 2041 2772 1848 2508 
Q 1656 2244 1656 1747 
Q 1656 1250 1848 986 
Q 2041 722 2400 722 
z
M 1656 2988 
Q 1888 3294 2169 3439 
Q 2450 3584 2816 3584 
Q 3463 3584 3878 3070 
Q 4294 2556 4294 1747 
Q 4294 938 3878 423 
Q 3463 -91 2816 -91 
Q 2450 -91 2169 54 
Q 1888 200 1656 506 
L 1656 0 
L 538 0 
L 538 4863 
L 1656 4863 
L 1656 2988 
z
" transform="scale(0.015625)"/>
     </defs>
     <use xlink:href="#DejaVuSans-Bold-4e"/>
     <use xlink:href="#DejaVuSans-Bold-6f" transform="translate(83.691406 0)"/>
     <use xlink:href="#DejaVuSans-Bold-69" transform="translate(152.392578 0)"/>
     <use xlink:href="#DejaVuSans-Bold-73" transform="translate(186.669922 0)"/>
     <use xlink:href="#DejaVuSans-Bold-79" transform="translate(246.191406 0)"/>
     <use xlink:href="#DejaVuSans-Bold-20" transform="translate(311.376953 0)"/>
     <use xlink:href="#DejaVuSans-Bold-2f" transform="translate(346.191406 0)"/>
     <use xlink:href="#DejaVuSans-Bold-20" transform="translate(382.714844 0)"/>
     <use xlink:href="#DejaVuSans-Bold-62" transform="translate(417.529297 0)"/>
     <use xlink:href="#DejaVuSans-Bold-69" transform="translate(489.111328 0)"/>
     <use xlink:href="#DejaVuSans-Bold-61" transform="translate(523.388672 0)"/>
     <use xlink:href="#DejaVuSans-Bold-73" transform="translate(590.869141 0)"/>
     <use xlink:href="#DejaVuSans-Bold-65" transform="translate(650.390625 0)"/>
     <use xlink:href="#DejaVuSans-Bold-64" transform="translate(718.212891 0)"/>
     <use xlink:href="#DejaVuSans-Bold-20" transform="translate(789.794922 0)"/>
     <use xlink:href="#DejaVuSans-Bold-63" transform="translate(824.609375 0)"/>
     <use xlink:href="#DejaVuSans-Bold-61" transform="translate(883.886719 0)"/>
     <use xlink:href="#DejaVuSans-Bold-70" transform="translate(951.367188 0)"/>
     <use xlink:href="#DejaVuSans-Bold-74" transform="translate(1022.949219 0)"/>
     <use xlink:href="#DejaVuSans-Bold-69" transform="translate(1070.751953 0)"/>
     <use xlink:href="#DejaVuSans-Bold-6f" transform="translate(1105.029297 0)"/>
     <use xlink:href="#DejaVuSans-Bold-6e" transform="translate(1173.730469 0)"/>
     <use xlink:href="#DejaVuSans-Bold-73" transform="translate(1244.921875 0)"/>
    </g>
    <!-- (omitted or incorrect) -->
    <g transform="translate(54.034875 255.245662) scale(0.12 -0.12)">
     <use xlink:href="#DejaVuSans-Bold-28"/>
     <use xlink:href="#DejaVuSans-Bold-6f" transform="translate(45.703125 0)"/>
     <use xlink:href="#DejaVuSans-Bold-6d" transform="translate(114.404297 0)"/>
     <use xlink:href="#DejaVuSans-Bold-69" transform="translate(218.603516 0)"/>
     <use xlink:href="#DejaVuSans-Bold-74" transform="translate(252.880859 0)"/>
     <use xlink:href="#DejaVuSans-Bold-74" transform="translate(300.683594 0)"/>
     <use xlink:href="#DejaVuSans-Bold-65" transform="translate(348.486328 0)"/>
     <use xlink:href="#DejaVuSans-Bold-64" transform="translate(416.308594 0)"/>
     <use xlink:href="#DejaVuSans-Bold-20" transform="translate(487.890625 0)"/>
     <use xlink:href="#DejaVuSans-Bold-6f" transform="translate(522.705078 0)"/>
     <use xlink:href="#DejaVuSans-Bold-72" transform="translate(591.40625 0)"/>
     <use xlink:href="#DejaVuSans-Bold-20" transform="translate(640.722656 0)"/>
     <use xlink:href="#DejaVuSans-Bold-69" transform="translate(675.537109 0)"/>
     <use xlink:href="#DejaVuSans-Bold-6e" transform="translate(709.814453 0)"/>
     <use xlink:href="#DejaVuSans-Bold-63" transform="translate(781.005859 0)"/>
     <use xlink:href="#DejaVuSans-Bold-6f" transform="translate(840.283203 0)"/>
     <use xlink:href="#DejaVuSans-Bold-72" transform="translate(908.984375 0)"/>
     <use xlink:href="#DejaVuSans-Bold-72" transform="translate(958.300781 0)"/>
     <use xlink:href="#DejaVuSans-Bold-65" transform="translate(1007.617188 0)"/>
     <use xlink:href="#DejaVuSans-Bold-63" transform="translate(1075.439453 0)"/>
     <use xlink:href="#DejaVuSans-Bold-74" transform="translate(1134.716797 0)"/>
     <use xlink:href="#DejaVuSans-Bold-29" transform="translate(1182.519531 0)"/>
    </g>
   </g>
   <g id="text_7">
    <!-- Controlled perturbation -->
    <g transform="translate(47.332688 355.477417) scale(0.12 -0.12)">
     <defs>
      <path id="DejaVuSans-Bold-43" d="M 4288 256 
Q 3956 84 3597 -3 
Q 3238 -91 2847 -91 
Q 1681 -91 1000 561 
Q 319 1213 319 2328 
Q 319 3447 1000 4098 
Q 1681 4750 2847 4750 
Q 3238 4750 3597 4662 
Q 3956 4575 4288 4403 
L 4288 3438 
Q 3953 3666 3628 3772 
Q 3303 3878 2944 3878 
Q 2300 3878 1931 3465 
Q 1563 3053 1563 2328 
Q 1563 1606 1931 1193 
Q 2300 781 2944 781 
Q 3303 781 3628 887 
Q 3953 994 4288 1222 
L 4288 256 
z
" transform="scale(0.015625)"/>
     </defs>
     <use xlink:href="#DejaVuSans-Bold-43"/>
     <use xlink:href="#DejaVuSans-Bold-6f" transform="translate(73.388672 0)"/>
     <use xlink:href="#DejaVuSans-Bold-6e" transform="translate(142.089844 0)"/>
     <use xlink:href="#DejaVuSans-Bold-74" transform="translate(213.28125 0)"/>
     <use xlink:href="#DejaVuSans-Bold-72" transform="translate(261.083984 0)"/>
     <use xlink:href="#DejaVuSans-Bold-6f" transform="translate(310.400391 0)"/>
     <use xlink:href="#DejaVuSans-Bold-6c" transform="translate(379.101562 0)"/>
     <use xlink:href="#DejaVuSans-Bold-6c" transform="translate(413.378906 0)"/>
     <use xlink:href="#DejaVuSans-Bold-65" transform="translate(447.65625 0)"/>
     <use xlink:href="#DejaVuSans-Bold-64" transform="translate(515.478516 0)"/>
     <use xlink:href="#DejaVuSans-Bold-20" transform="translate(587.060547 0)"/>
     <use xlink:href="#DejaVuSans-Bold-70" transform="translate(621.875 0)"/>
     <use xlink:href="#DejaVuSans-Bold-65" transform="translate(693.457031 0)"/>
     <use xlink:href="#DejaVuSans-Bold-72" transform="translate(761.279297 0)"/>
     <use xlink:href="#DejaVuSans-Bold-74" transform="translate(810.595703 0)"/>
     <use xlink:href="#DejaVuSans-Bold-75" transform="translate(858.398438 0)"/>
     <use xlink:href="#DejaVuSans-Bold-72" transform="translate(929.589844 0)"/>
     <use xlink:href="#DejaVuSans-Bold-62" transform="translate(978.90625 0)"/>
     <use xlink:href="#DejaVuSans-Bold-61" transform="translate(1050.488281 0)"/>
     <use xlink:href="#DejaVuSans-Bold-74" transform="translate(1117.96875 0)"/>
     <use xlink:href="#DejaVuSans-Bold-69" transform="translate(1165.771484 0)"/>
     <use xlink:href="#DejaVuSans-Bold-6f" transform="translate(1200.048828 0)"/>
     <use xlink:href="#DejaVuSans-Bold-6e" transform="translate(1268.75 0)"/>
    </g>
    <!-- (with proper rep capacity) -->
    <g transform="translate(38.873625 368.914792) scale(0.12 -0.12)">
     <use xlink:href="#DejaVuSans-Bold-28"/>
     <use xlink:href="#DejaVuSans-Bold-77" transform="translate(45.703125 0)"/>
     <use xlink:href="#DejaVuSans-Bold-69" transform="translate(138.085938 0)"/>
     <use xlink:href="#DejaVuSans-Bold-74" transform="translate(172.363281 0)"/>
     <use xlink:href="#DejaVuSans-Bold-68" transform="translate(220.166016 0)"/>
     <use xlink:href="#DejaVuSans-Bold-20" transform="translate(291.357422 0)"/>
     <use xlink:href="#DejaVuSans-Bold-70" transform="translate(326.171875 0)"/>
     <use xlink:href="#DejaVuSans-Bold-72" transform="translate(397.753906 0)"/>
     <use xlink:href="#DejaVuSans-Bold-6f" transform="translate(447.070312 0)"/>
     <use xlink:href="#DejaVuSans-Bold-70" transform="translate(515.771484 0)"/>
     <use xlink:href="#DejaVuSans-Bold-65" transform="translate(587.353516 0)"/>
     <use xlink:href="#DejaVuSans-Bold-72" transform="translate(655.175781 0)"/>
     <use xlink:href="#DejaVuSans-Bold-20" transform="translate(704.492188 0)"/>
     <use xlink:href="#DejaVuSans-Bold-72" transform="translate(739.306641 0)"/>
     <use xlink:href="#DejaVuSans-Bold-65" transform="translate(788.623047 0)"/>
     <use xlink:href="#DejaVuSans-Bold-70" transform="translate(856.445312 0)"/>
     <use xlink:href="#DejaVuSans-Bold-20" transform="translate(928.027344 0)"/>
     <use xlink:href="#DejaVuSans-Bold-63" transform="translate(962.841797 0)"/>
     <use xlink:href="#DejaVuSans-Bold-61" transform="translate(1022.119141 0)"/>
     <use xlink:href="#DejaVuSans-Bold-70" transform="translate(1089.599609 0)"/>
     <use xlink:href="#DejaVuSans-Bold-61" transform="translate(1161.181641 0)"/>
     <use xlink:href="#DejaVuSans-Bold-63" transform="translate(1228.662109 0)"/>
     <use xlink:href="#DejaVuSans-Bold-69" transform="translate(1287.939453 0)"/>
     <use xlink:href="#DejaVuSans-Bold-74" transform="translate(1322.216797 0)"/>
     <use xlink:href="#DejaVuSans-Bold-79" transform="translate(1370.019531 0)"/>
     <use xlink:href="#DejaVuSans-Bold-29" transform="translate(1435.205078 0)"/>
    </g>
   </g>
   <g id="text_8">
    <!-- Identifiable reps. -->
    <g transform="translate(340.724438 92.58282) scale(0.12 -0.12)">
     <defs>
      <path id="DejaVuSans-Bold-49" d="M 588 4666 
L 1791 4666 
L 1791 0 
L 588 0 
L 588 4666 
z
" transform="scale(0.015625)"/>
      <path id="DejaVuSans-Bold-2e" d="M 653 1209 
L 1778 1209 
L 1778 0 
L 653 0 
L 653 1209 
z
" transform="scale(0.015625)"/>
     </defs>
     <use xlink:href="#DejaVuSans-Bold-49"/>
     <use xlink:href="#DejaVuSans-Bold-64" transform="translate(37.207031 0)"/>
     <use xlink:href="#DejaVuSans-Bold-65" transform="translate(108.789062 0)"/>
     <use xlink:href="#DejaVuSans-Bold-6e" transform="translate(176.611328 0)"/>
     <use xlink:href="#DejaVuSans-Bold-74" transform="translate(247.802734 0)"/>
     <use xlink:href="#DejaVuSans-Bold-69" transform="translate(295.605469 0)"/>
     <use xlink:href="#DejaVuSans-Bold-66" transform="translate(329.882812 0)"/>
     <use xlink:href="#DejaVuSans-Bold-69" transform="translate(373.388672 0)"/>
     <use xlink:href="#DejaVuSans-Bold-61" transform="translate(407.666016 0)"/>
     <use xlink:href="#DejaVuSans-Bold-62" transform="translate(475.146484 0)"/>
     <use xlink:href="#DejaVuSans-Bold-6c" transform="translate(546.728516 0)"/>
     <use xlink:href="#DejaVuSans-Bold-65" transform="translate(581.005859 0)"/>
     <use xlink:href="#DejaVuSans-Bold-20" transform="translate(648.828125 0)"/>
     <use xlink:href="#DejaVuSans-Bold-72" transform="translate(683.642578 0)"/>
     <use xlink:href="#DejaVuSans-Bold-65" transform="translate(732.958984 0)"/>
     <use xlink:href="#DejaVuSans-Bold-70" transform="translate(800.78125 0)"/>
     <use xlink:href="#DejaVuSans-Bold-73" transform="translate(872.363281 0)"/>
     <use xlink:href="#DejaVuSans-Bold-2e" transform="translate(931.884766 0)"/>
    </g>
   </g>
   <g id="text_9">
    <!-- Warped reps. -->
    <g transform="translate(376.185938 206.3457) scale(0.12 -0.12)">
     <defs>
      <path id="DejaVuSans-Bold-57" d="M 191 4666 
L 1344 4666 
L 2150 1275 
L 2950 4666 
L 4109 4666 
L 4909 1275 
L 5716 4666 
L 6859 4666 
L 5759 0 
L 4372 0 
L 3525 3547 
L 2688 0 
L 1300 0 
L 191 4666 
z
" transform="scale(0.015625)"/>
     </defs>
     <use xlink:href="#DejaVuSans-Bold-57"/>
     <use xlink:href="#DejaVuSans-Bold-61" transform="translate(106.677734 0)"/>
     <use xlink:href="#DejaVuSans-Bold-72" transform="translate(174.158203 0)"/>
     <use xlink:href="#DejaVuSans-Bold-70" transform="translate(223.474609 0)"/>
     <use xlink:href="#DejaVuSans-Bold-65" transform="translate(295.056641 0)"/>
     <use xlink:href="#DejaVuSans-Bold-64" transform="translate(362.878906 0)"/>
     <use xlink:href="#DejaVuSans-Bold-20" transform="translate(434.460938 0)"/>
     <use xlink:href="#DejaVuSans-Bold-72" transform="translate(469.275391 0)"/>
     <use xlink:href="#DejaVuSans-Bold-65" transform="translate(518.591797 0)"/>
     <use xlink:href="#DejaVuSans-Bold-70" transform="translate(586.414062 0)"/>
     <use xlink:href="#DejaVuSans-Bold-73" transform="translate(657.996094 0)"/>
     <use xlink:href="#DejaVuSans-Bold-2e" transform="translate(717.517578 0)"/>
    </g>
   </g>
   <g id="text_10">
    <!-- Robustness -->
    <g transform="translate(600.742313 127.998532) scale(0.12 -0.12)">
     <defs>
      <path id="DejaVuSans-Bold-52" d="M 2297 2597 
Q 2675 2597 2839 2737 
Q 3003 2878 3003 3200 
Q 3003 3519 2839 3656 
Q 2675 3794 2297 3794 
L 1791 3794 
L 1791 2597 
L 2297 2597 
z
M 1791 1766 
L 1791 0 
L 588 0 
L 588 4666 
L 2425 4666 
Q 3347 4666 3776 4356 
Q 4206 4047 4206 3378 
Q 4206 2916 3982 2619 
Q 3759 2322 3309 2181 
Q 3556 2125 3751 1926 
Q 3947 1728 4147 1325 
L 4800 0 
L 3519 0 
L 2950 1159 
Q 2778 1509 2601 1637 
Q 2425 1766 2131 1766 
L 1791 1766 
z
" transform="scale(0.015625)"/>
     </defs>
     <use xlink:href="#DejaVuSans-Bold-52"/>
     <use xlink:href="#DejaVuSans-Bold-6f" transform="translate(77.001953 0)"/>
     <use xlink:href="#DejaVuSans-Bold-62" transform="translate(145.703125 0)"/>
     <use xlink:href="#DejaVuSans-Bold-75" transform="translate(217.285156 0)"/>
     <use xlink:href="#DejaVuSans-Bold-73" transform="translate(288.476562 0)"/>
     <use xlink:href="#DejaVuSans-Bold-74" transform="translate(347.998047 0)"/>
     <use xlink:href="#DejaVuSans-Bold-6e" transform="translate(395.800781 0)"/>
     <use xlink:href="#DejaVuSans-Bold-65" transform="translate(466.992188 0)"/>
     <use xlink:href="#DejaVuSans-Bold-73" transform="translate(534.814453 0)"/>
     <use xlink:href="#DejaVuSans-Bold-73" transform="translate(594.335938 0)"/>
    </g>
    <!-- (OOD / domain shift) -->
    <g transform="translate(570.423563 141.435907) scale(0.12 -0.12)">
     <defs>
      <path id="DejaVuSans-Bold-4f" d="M 2719 3878 
Q 2169 3878 1866 3472 
Q 1563 3066 1563 2328 
Q 1563 1594 1866 1187 
Q 2169 781 2719 781 
Q 3272 781 3575 1187 
Q 3878 1594 3878 2328 
Q 3878 3066 3575 3472 
Q 3272 3878 2719 3878 
z
M 2719 4750 
Q 3844 4750 4481 4106 
Q 5119 3463 5119 2328 
Q 5119 1197 4481 553 
Q 3844 -91 2719 -91 
Q 1597 -91 958 553 
Q 319 1197 319 2328 
Q 319 3463 958 4106 
Q 1597 4750 2719 4750 
z
" transform="scale(0.015625)"/>
      <path id="DejaVuSans-Bold-44" d="M 1791 3756 
L 1791 909 
L 2222 909 
Q 2959 909 3348 1275 
Q 3738 1641 3738 2338 
Q 3738 3031 3350 3393 
Q 2963 3756 2222 3756 
L 1791 3756 
z
M 588 4666 
L 1856 4666 
Q 2919 4666 3439 4514 
Q 3959 4363 4331 4000 
Q 4659 3684 4818 3271 
Q 4978 2859 4978 2338 
Q 4978 1809 4818 1395 
Q 4659 981 4331 666 
Q 3956 303 3431 151 
Q 2906 0 1856 0 
L 588 0 
L 588 4666 
z
" transform="scale(0.015625)"/>
     </defs>
     <use xlink:href="#DejaVuSans-Bold-28"/>
     <use xlink:href="#DejaVuSans-Bold-4f" transform="translate(45.703125 0)"/>
     <use xlink:href="#DejaVuSans-Bold-4f" transform="translate(130.712891 0)"/>
     <use xlink:href="#DejaVuSans-Bold-44" transform="translate(215.722656 0)"/>
     <use xlink:href="#DejaVuSans-Bold-20" transform="translate(298.730469 0)"/>
     <use xlink:href="#DejaVuSans-Bold-2f" transform="translate(333.544922 0)"/>
     <use xlink:href="#DejaVuSans-Bold-20" transform="translate(370.068359 0)"/>
     <use xlink:href="#DejaVuSans-Bold-64" transform="translate(404.882812 0)"/>
     <use xlink:href="#DejaVuSans-Bold-6f" transform="translate(476.464844 0)"/>
     <use xlink:href="#DejaVuSans-Bold-6d" transform="translate(545.166016 0)"/>
     <use xlink:href="#DejaVuSans-Bold-61" transform="translate(649.365234 0)"/>
     <use xlink:href="#DejaVuSans-Bold-69" transform="translate(716.845703 0)"/>
     <use xlink:href="#DejaVuSans-Bold-6e" transform="translate(751.123047 0)"/>
     <use xlink:href="#DejaVuSans-Bold-20" transform="translate(822.314453 0)"/>
     <use xlink:href="#DejaVuSans-Bold-73" transform="translate(857.128906 0)"/>
     <use xlink:href="#DejaVuSans-Bold-68" transform="translate(916.650391 0)"/>
     <use xlink:href="#DejaVuSans-Bold-69" transform="translate(987.841797 0)"/>
     <use xlink:href="#DejaVuSans-Bold-66" transform="translate(1022.119141 0)"/>
     <use xlink:href="#DejaVuSans-Bold-74" transform="translate(1065.625 0)"/>
     <use xlink:href="#DejaVuSans-Bold-29" transform="translate(1113.427734 0)"/>
    </g>
   </g>
   <g id="text_11">
    <!-- Interpretability -->
    <g transform="translate(588.087938 241.714537) scale(0.12 -0.12)">
     <use xlink:href="#DejaVuSans-Bold-49"/>
     <use xlink:href="#DejaVuSans-Bold-6e" transform="translate(37.207031 0)"/>
     <use xlink:href="#DejaVuSans-Bold-74" transform="translate(108.398438 0)"/>
     <use xlink:href="#DejaVuSans-Bold-65" transform="translate(156.201172 0)"/>
     <use xlink:href="#DejaVuSans-Bold-72" transform="translate(224.023438 0)"/>
     <use xlink:href="#DejaVuSans-Bold-70" transform="translate(273.339844 0)"/>
     <use xlink:href="#DejaVuSans-Bold-72" transform="translate(344.921875 0)"/>
     <use xlink:href="#DejaVuSans-Bold-65" transform="translate(394.238281 0)"/>
     <use xlink:href="#DejaVuSans-Bold-74" transform="translate(462.060547 0)"/>
     <use xlink:href="#DejaVuSans-Bold-61" transform="translate(509.863281 0)"/>
     <use xlink:href="#DejaVuSans-Bold-62" transform="translate(577.34375 0)"/>
     <use xlink:href="#DejaVuSans-Bold-69" transform="translate(648.925781 0)"/>
     <use xlink:href="#DejaVuSans-Bold-6c" transform="translate(683.203125 0)"/>
     <use xlink:href="#DejaVuSans-Bold-69" transform="translate(717.480469 0)"/>
     <use xlink:href="#DejaVuSans-Bold-74" transform="translate(751.757812 0)"/>
     <use xlink:href="#DejaVuSans-Bold-79" transform="translate(799.560547 0)"/>
    </g>
    <!--  &amp; fairness -->
    <g transform="translate(603.404813 255.245662) scale(0.12 -0.12)">
     <use xlink:href="#DejaVuSans-Bold-20"/>
     <use xlink:href="#DejaVuSans-Bold-26" transform="translate(34.814453 0)"/>
     <use xlink:href="#DejaVuSans-Bold-20" transform="translate(122.021484 0)"/>
     <use xlink:href="#DejaVuSans-Bold-66" transform="translate(156.835938 0)"/>
     <use xlink:href="#DejaVuSans-Bold-61" transform="translate(200.341797 0)"/>
     <use xlink:href="#DejaVuSans-Bold-69" transform="translate(267.822266 0)"/>
     <use xlink:href="#DejaVuSans-Bold-72" transform="translate(302.099609 0)"/>
     <use xlink:href="#DejaVuSans-Bold-6e" transform="translate(351.416016 0)"/>
     <use xlink:href="#DejaVuSans-Bold-65" transform="translate(422.607422 0)"/>
     <use xlink:href="#DejaVuSans-Bold-73" transform="translate(490.429688 0)"/>
     <use xlink:href="#DejaVuSans-Bold-73" transform="translate(549.951172 0)"/>
    </g>
   </g>
   <g id="text_12">
    <!-- Hallucination / -->
    <g transform="translate(590.983875 355.477417) scale(0.12 -0.12)">
     <use xlink:href="#DejaVuSans-Bold-48"/>
     <use xlink:href="#DejaVuSans-Bold-61" transform="translate(83.691406 0)"/>
     <use xlink:href="#DejaVuSans-Bold-6c" transform="translate(151.171875 0)"/>
     <use xlink:href="#DejaVuSans-Bold-6c" transform="translate(185.449219 0)"/>
     <use xlink:href="#DejaVuSans-Bold-75" transform="translate(219.726562 0)"/>
     <use xlink:href="#DejaVuSans-Bold-63" transform="translate(290.917969 0)"/>
     <use xlink:href="#DejaVuSans-Bold-69" transform="translate(350.195312 0)"/>
     <use xlink:href="#DejaVuSans-Bold-6e" transform="translate(384.472656 0)"/>
     <use xlink:href="#DejaVuSans-Bold-61" transform="translate(455.664062 0)"/>
     <use xlink:href="#DejaVuSans-Bold-74" transform="translate(523.144531 0)"/>
     <use xlink:href="#DejaVuSans-Bold-69" transform="translate(570.947266 0)"/>
     <use xlink:href="#DejaVuSans-Bold-6f" transform="translate(605.224609 0)"/>
     <use xlink:href="#DejaVuSans-Bold-6e" transform="translate(673.925781 0)"/>
     <use xlink:href="#DejaVuSans-Bold-20" transform="translate(745.117188 0)"/>
     <use xlink:href="#DejaVuSans-Bold-2f" transform="translate(779.931641 0)"/>
    </g>
    <!-- fragile performance -->
    <g transform="translate(572.574188 368.914792) scale(0.12 -0.12)">
     <defs>
      <path id="DejaVuSans-Bold-67" d="M 2919 594 
Q 2688 288 2409 144 
Q 2131 0 1766 0 
Q 1125 0 706 504 
Q 288 1009 288 1791 
Q 288 2575 706 3076 
Q 1125 3578 1766 3578 
Q 2131 3578 2409 3434 
Q 2688 3291 2919 2981 
L 2919 3500 
L 4044 3500 
L 4044 353 
Q 4044 -491 3511 -936 
Q 2978 -1381 1966 -1381 
Q 1638 -1381 1331 -1331 
Q 1025 -1281 716 -1178 
L 716 -306 
Q 1009 -475 1290 -558 
Q 1572 -641 1856 -641 
Q 2406 -641 2662 -400 
Q 2919 -159 2919 353 
L 2919 594 
z
M 2181 2772 
Q 1834 2772 1640 2515 
Q 1447 2259 1447 1791 
Q 1447 1309 1634 1061 
Q 1822 813 2181 813 
Q 2531 813 2725 1069 
Q 2919 1325 2919 1791 
Q 2919 2259 2725 2515 
Q 2531 2772 2181 2772 
z
" transform="scale(0.015625)"/>
     </defs>
     <use xlink:href="#DejaVuSans-Bold-66"/>
     <use xlink:href="#DejaVuSans-Bold-72" transform="translate(43.505859 0)"/>
     <use xlink:href="#DejaVuSans-Bold-61" transform="translate(92.822266 0)"/>
     <use xlink:href="#DejaVuSans-Bold-67" transform="translate(160.302734 0)"/>
     <use xlink:href="#DejaVuSans-Bold-69" transform="translate(231.884766 0)"/>
     <use xlink:href="#DejaVuSans-Bold-6c" transform="translate(266.162109 0)"/>
     <use xlink:href="#DejaVuSans-Bold-65" transform="translate(300.439453 0)"/>
     <use xlink:href="#DejaVuSans-Bold-20" transform="translate(368.261719 0)"/>
     <use xlink:href="#DejaVuSans-Bold-70" transform="translate(403.076172 0)"/>
     <use xlink:href="#DejaVuSans-Bold-65" transform="translate(474.658203 0)"/>
     <use xlink:href="#DejaVuSans-Bold-72" transform="translate(542.480469 0)"/>
     <use xlink:href="#DejaVuSans-Bold-66" transform="translate(591.796875 0)"/>
     <use xlink:href="#DejaVuSans-Bold-6f" transform="translate(635.302734 0)"/>
     <use xlink:href="#DejaVuSans-Bold-72" transform="translate(704.003906 0)"/>
     <use xlink:href="#DejaVuSans-Bold-6d" transform="translate(753.320312 0)"/>
     <use xlink:href="#DejaVuSans-Bold-61" transform="translate(857.519531 0)"/>
     <use xlink:href="#DejaVuSans-Bold-6e" transform="translate(925 0)"/>
     <use xlink:href="#DejaVuSans-Bold-63" transform="translate(996.191406 0)"/>
     <use xlink:href="#DejaVuSans-Bold-65" transform="translate(1055.46875 0)"/>
    </g>
   </g>
   <g id="text_13">
    <!-- embed -->
    <g style="fill: #145da0" transform="translate(272.388141 107.215286) scale(0.11 -0.11)">
     <use xlink:href="#DejaVuSans-Bold-65"/>
     <use xlink:href="#DejaVuSans-Bold-6d" transform="translate(67.822266 0)"/>
     <use xlink:href="#DejaVuSans-Bold-62" transform="translate(172.021484 0)"/>
     <use xlink:href="#DejaVuSans-Bold-65" transform="translate(243.603516 0)"/>
     <use xlink:href="#DejaVuSans-Bold-64" transform="translate(311.425781 0)"/>
    </g>
    <!--  true semantics -->
    <g style="fill: #145da0" transform="translate(245.227594 119.532879) scale(0.11 -0.11)">
     <use xlink:href="#DejaVuSans-Bold-20"/>
     <use xlink:href="#DejaVuSans-Bold-74" transform="translate(34.814453 0)"/>
     <use xlink:href="#DejaVuSans-Bold-72" transform="translate(82.617188 0)"/>
     <use xlink:href="#DejaVuSans-Bold-75" transform="translate(131.933594 0)"/>
     <use xlink:href="#DejaVuSans-Bold-65" transform="translate(203.125 0)"/>
     <use xlink:href="#DejaVuSans-Bold-20" transform="translate(270.947266 0)"/>
     <use xlink:href="#DejaVuSans-Bold-73" transform="translate(305.761719 0)"/>
     <use xlink:href="#DejaVuSans-Bold-65" transform="translate(365.283203 0)"/>
     <use xlink:href="#DejaVuSans-Bold-6d" transform="translate(433.105469 0)"/>
     <use xlink:href="#DejaVuSans-Bold-61" transform="translate(537.304688 0)"/>
     <use xlink:href="#DejaVuSans-Bold-6e" transform="translate(604.785156 0)"/>
     <use xlink:href="#DejaVuSans-Bold-74" transform="translate(675.976562 0)"/>
     <use xlink:href="#DejaVuSans-Bold-69" transform="translate(723.779297 0)"/>
     <use xlink:href="#DejaVuSans-Bold-63" transform="translate(758.056641 0)"/>
     <use xlink:href="#DejaVuSans-Bold-73" transform="translate(817.333984 0)"/>
    </g>
   </g>
   <g id="text_14">
    <!-- omit / -->
    <g style="fill: #b00020" transform="translate(301.871453 271.539446) scale(0.11 -0.11)">
     <use xlink:href="#DejaVuSans-Bold-6f"/>
     <use xlink:href="#DejaVuSans-Bold-6d" transform="translate(68.701172 0)"/>
     <use xlink:href="#DejaVuSans-Bold-69" transform="translate(172.900391 0)"/>
     <use xlink:href="#DejaVuSans-Bold-74" transform="translate(207.177734 0)"/>
     <use xlink:href="#DejaVuSans-Bold-20" transform="translate(254.980469 0)"/>
     <use xlink:href="#DejaVuSans-Bold-2f" transform="translate(289.794922 0)"/>
    </g>
    <!--  distort factors -->
    <g style="fill: #b00020" transform="translate(273.388328 283.857039) scale(0.11 -0.11)">
     <use xlink:href="#DejaVuSans-Bold-20"/>
     <use xlink:href="#DejaVuSans-Bold-64" transform="translate(34.814453 0)"/>
     <use xlink:href="#DejaVuSans-Bold-69" transform="translate(106.396484 0)"/>
     <use xlink:href="#DejaVuSans-Bold-73" transform="translate(140.673828 0)"/>
     <use xlink:href="#DejaVuSans-Bold-74" transform="translate(200.195312 0)"/>
     <use xlink:href="#DejaVuSans-Bold-6f" transform="translate(247.998047 0)"/>
     <use xlink:href="#DejaVuSans-Bold-72" transform="translate(316.699219 0)"/>
     <use xlink:href="#DejaVuSans-Bold-74" transform="translate(366.015625 0)"/>
     <use xlink:href="#DejaVuSans-Bold-20" transform="translate(413.818359 0)"/>
     <use xlink:href="#DejaVuSans-Bold-66" transform="translate(448.632812 0)"/>
     <use xlink:href="#DejaVuSans-Bold-61" transform="translate(492.138672 0)"/>
     <use xlink:href="#DejaVuSans-Bold-63" transform="translate(559.619141 0)"/>
     <use xlink:href="#DejaVuSans-Bold-74" transform="translate(618.896484 0)"/>
     <use xlink:href="#DejaVuSans-Bold-6f" transform="translate(666.699219 0)"/>
     <use xlink:href="#DejaVuSans-Bold-72" transform="translate(735.400391 0)"/>
     <use xlink:href="#DejaVuSans-Bold-73" transform="translate(784.716797 0)"/>
    </g>
   </g>
   <g id="text_15">
    <!-- suppress -->
    <g style="fill: #145da0" transform="translate(288.001281 233.618486) scale(0.11 -0.11)">
     <use xlink:href="#DejaVuSans-Bold-73"/>
     <use xlink:href="#DejaVuSans-Bold-75" transform="translate(59.521484 0)"/>
     <use xlink:href="#DejaVuSans-Bold-70" transform="translate(130.712891 0)"/>
     <use xlink:href="#DejaVuSans-Bold-70" transform="translate(202.294922 0)"/>
     <use xlink:href="#DejaVuSans-Bold-72" transform="translate(273.876953 0)"/>
     <use xlink:href="#DejaVuSans-Bold-65" transform="translate(323.193359 0)"/>
     <use xlink:href="#DejaVuSans-Bold-73" transform="translate(391.015625 0)"/>
     <use xlink:href="#DejaVuSans-Bold-73" transform="translate(450.537109 0)"/>
    </g>
    <!--  nuisance variables -->
    <g style="fill: #145da0" transform="translate(256.183781 245.936079) scale(0.11 -0.11)">
     <defs>
      <path id="DejaVuSans-Bold-76" d="M 97 3500 
L 1216 3500 
L 2088 1081 
L 2956 3500 
L 4078 3500 
L 2700 0 
L 1472 0 
L 97 3500 
z
" transform="scale(0.015625)"/>
     </defs>
     <use xlink:href="#DejaVuSans-Bold-20"/>
     <use xlink:href="#DejaVuSans-Bold-6e" transform="translate(34.814453 0)"/>
     <use xlink:href="#DejaVuSans-Bold-75" transform="translate(106.005859 0)"/>
     <use xlink:href="#DejaVuSans-Bold-69" transform="translate(177.197266 0)"/>
     <use xlink:href="#DejaVuSans-Bold-73" transform="translate(211.474609 0)"/>
     <use xlink:href="#DejaVuSans-Bold-61" transform="translate(270.996094 0)"/>
     <use xlink:href="#DejaVuSans-Bold-6e" transform="translate(338.476562 0)"/>
     <use xlink:href="#DejaVuSans-Bold-63" transform="translate(409.667969 0)"/>
     <use xlink:href="#DejaVuSans-Bold-65" transform="translate(468.945312 0)"/>
     <use xlink:href="#DejaVuSans-Bold-20" transform="translate(536.767578 0)"/>
     <use xlink:href="#DejaVuSans-Bold-76" transform="translate(571.582031 0)"/>
     <use xlink:href="#DejaVuSans-Bold-61" transform="translate(636.767578 0)"/>
     <use xlink:href="#DejaVuSans-Bold-72" transform="translate(704.248047 0)"/>
     <use xlink:href="#DejaVuSans-Bold-69" transform="translate(753.564453 0)"/>
     <use xlink:href="#DejaVuSans-Bold-61" transform="translate(787.841797 0)"/>
     <use xlink:href="#DejaVuSans-Bold-62" transform="translate(855.322266 0)"/>
     <use xlink:href="#DejaVuSans-Bold-6c" transform="translate(926.904297 0)"/>
     <use xlink:href="#DejaVuSans-Bold-65" transform="translate(961.181641 0)"/>
     <use xlink:href="#DejaVuSans-Bold-73" transform="translate(1029.003906 0)"/>
    </g>
   </g>
   <g id="text_16">
    <!-- stable -->
    <g style="fill: #145da0" transform="translate(492.744359 100.895126) scale(0.11 -0.11)">
     <use xlink:href="#DejaVuSans-Bold-73"/>
     <use xlink:href="#DejaVuSans-Bold-74" transform="translate(59.521484 0)"/>
     <use xlink:href="#DejaVuSans-Bold-61" transform="translate(107.324219 0)"/>
     <use xlink:href="#DejaVuSans-Bold-62" transform="translate(174.804688 0)"/>
     <use xlink:href="#DejaVuSans-Bold-6c" transform="translate(246.386719 0)"/>
     <use xlink:href="#DejaVuSans-Bold-65" transform="translate(280.664062 0)"/>
    </g>
    <!--  features -->
    <g style="fill: #145da0" transform="translate(483.901391 113.212719) scale(0.11 -0.11)">
     <use xlink:href="#DejaVuSans-Bold-20"/>
     <use xlink:href="#DejaVuSans-Bold-66" transform="translate(34.814453 0)"/>
     <use xlink:href="#DejaVuSans-Bold-65" transform="translate(78.320312 0)"/>
     <use xlink:href="#DejaVuSans-Bold-61" transform="translate(146.142578 0)"/>
     <use xlink:href="#DejaVuSans-Bold-74" transform="translate(213.623047 0)"/>
     <use xlink:href="#DejaVuSans-Bold-75" transform="translate(261.425781 0)"/>
     <use xlink:href="#DejaVuSans-Bold-72" transform="translate(332.617188 0)"/>
     <use xlink:href="#DejaVuSans-Bold-65" transform="translate(381.933594 0)"/>
     <use xlink:href="#DejaVuSans-Bold-73" transform="translate(449.755859 0)"/>
    </g>
   </g>
   <g id="text_17">
    <!-- clean -->
    <g style="fill: #145da0" transform="translate(491.641063 185.163926) scale(0.11 -0.11)">
     <use xlink:href="#DejaVuSans-Bold-63"/>
     <use xlink:href="#DejaVuSans-Bold-6c" transform="translate(59.277344 0)"/>
     <use xlink:href="#DejaVuSans-Bold-65" transform="translate(93.554688 0)"/>
     <use xlink:href="#DejaVuSans-Bold-61" transform="translate(161.376953 0)"/>
     <use xlink:href="#DejaVuSans-Bold-6e" transform="translate(228.857422 0)"/>
    </g>
    <!--  semantics -->
    <g style="fill: #145da0" transform="translate(474.819656 197.481519) scale(0.11 -0.11)">
     <use xlink:href="#DejaVuSans-Bold-20"/>
     <use xlink:href="#DejaVuSans-Bold-73" transform="translate(34.814453 0)"/>
     <use xlink:href="#DejaVuSans-Bold-65" transform="translate(94.335938 0)"/>
     <use xlink:href="#DejaVuSans-Bold-6d" transform="translate(162.158203 0)"/>
     <use xlink:href="#DejaVuSans-Bold-61" transform="translate(266.357422 0)"/>
     <use xlink:href="#DejaVuSans-Bold-6e" transform="translate(333.837891 0)"/>
     <use xlink:href="#DejaVuSans-Bold-74" transform="translate(405.029297 0)"/>
     <use xlink:href="#DejaVuSans-Bold-69" transform="translate(452.832031 0)"/>
     <use xlink:href="#DejaVuSans-Bold-63" transform="translate(487.109375 0)"/>
     <use xlink:href="#DejaVuSans-Bold-73" transform="translate(546.386719 0)"/>
    </g>
   </g>
   <g id="text_18">
    <!-- spurious -->
    <g style="fill: #b00020" transform="translate(481.454031 324.207446) scale(0.11 -0.11)">
     <use xlink:href="#DejaVuSans-Bold-73"/>
     <use xlink:href="#DejaVuSans-Bold-70" transform="translate(59.521484 0)"/>
     <use xlink:href="#DejaVuSans-Bold-75" transform="translate(131.103516 0)"/>
     <use xlink:href="#DejaVuSans-Bold-72" transform="translate(202.294922 0)"/>
     <use xlink:href="#DejaVuSans-Bold-69" transform="translate(251.611328 0)"/>
     <use xlink:href="#DejaVuSans-Bold-6f" transform="translate(285.888672 0)"/>
     <use xlink:href="#DejaVuSans-Bold-75" transform="translate(354.589844 0)"/>
     <use xlink:href="#DejaVuSans-Bold-73" transform="translate(425.78125 0)"/>
    </g>
    <!--  cues -->
    <g style="fill: #b00020" transform="translate(492.050125 336.525039) scale(0.11 -0.11)">
     <use xlink:href="#DejaVuSans-Bold-20"/>
     <use xlink:href="#DejaVuSans-Bold-63" transform="translate(34.814453 0)"/>
     <use xlink:href="#DejaVuSans-Bold-75" transform="translate(94.091797 0)"/>
     <use xlink:href="#DejaVuSans-Bold-65" transform="translate(165.283203 0)"/>
     <use xlink:href="#DejaVuSans-Bold-73" transform="translate(233.105469 0)"/>
    </g>
   </g>
   <g id="legend_1">
    <g id="patch_15">
     <path d="M 272.588437 392.290385 
L 294.588437 392.290385 
L 294.588437 384.590385 
L 272.588437 384.590385 
z
" style="fill: #ff8c00; fill-opacity: 0.1; stroke: #ff8c00; stroke-width: 2; stroke-linejoin: miter"/>
    </g>
    <g id="text_19">
     <!--  -->
     <g transform="translate(303.388438 384.98776) scale(0.11 -0.11)"/>
     <!-- Capacity of Information Bottleneck -->
     <g transform="translate(303.388438 397.305354) scale(0.11 -0.11)">
      <defs>
       <path id="DejaVuSans-49" d="M 628 4666 
L 1259 4666 
L 1259 0 
L 628 0 
L 628 4666 
z
" transform="scale(0.015625)"/>
       <path id="DejaVuSans-42" d="M 1259 2228 
L 1259 519 
L 2272 519 
Q 2781 519 3026 730 
Q 3272 941 3272 1375 
Q 3272 1813 3026 2020 
Q 2781 2228 2272 2228 
L 1259 2228 
z
M 1259 4147 
L 1259 2741 
L 2194 2741 
Q 2656 2741 2882 2914 
Q 3109 3088 3109 3444 
Q 3109 3797 2882 3972 
Q 2656 4147 2194 4147 
L 1259 4147 
z
M 628 4666 
L 2241 4666 
Q 2963 4666 3353 4366 
Q 3744 4066 3744 3513 
Q 3744 3084 3544 2831 
Q 3344 2578 2956 2516 
Q 3422 2416 3680 2098 
Q 3938 1781 3938 1306 
Q 3938 681 3513 340 
Q 3088 0 2303 0 
L 628 0 
L 628 4666 
z
" transform="scale(0.015625)"/>
       <path id="DejaVuSans-6b" d="M 581 4863 
L 1159 4863 
L 1159 1991 
L 2875 3500 
L 3609 3500 
L 1753 1863 
L 3688 0 
L 2938 0 
L 1159 1709 
L 1159 0 
L 581 0 
L 581 4863 
z
" transform="scale(0.015625)"/>
      </defs>
      <use xlink:href="#DejaVuSans-43"/>
      <use xlink:href="#DejaVuSans-61" transform="translate(69.824219 0)"/>
      <use xlink:href="#DejaVuSans-70" transform="translate(131.103516 0)"/>
      <use xlink:href="#DejaVuSans-61" transform="translate(194.580078 0)"/>
      <use xlink:href="#DejaVuSans-63" transform="translate(255.859375 0)"/>
      <use xlink:href="#DejaVuSans-69" transform="translate(310.839844 0)"/>
      <use xlink:href="#DejaVuSans-74" transform="translate(338.623047 0)"/>
      <use xlink:href="#DejaVuSans-79" transform="translate(377.832031 0)"/>
      <use xlink:href="#DejaVuSans-20" transform="translate(437.011719 0)"/>
      <use xlink:href="#DejaVuSans-6f" transform="translate(468.798828 0)"/>
      <use xlink:href="#DejaVuSans-66" transform="translate(529.980469 0)"/>
      <use xlink:href="#DejaVuSans-20" transform="translate(565.185547 0)"/>
      <use xlink:href="#DejaVuSans-49" transform="translate(596.972656 0)"/>
      <use xlink:href="#DejaVuSans-6e" transform="translate(626.464844 0)"/>
      <use xlink:href="#DejaVuSans-66" transform="translate(689.84375 0)"/>
      <use xlink:href="#DejaVuSans-6f" transform="translate(725.048828 0)"/>
      <use xlink:href="#DejaVuSans-72" transform="translate(786.230469 0)"/>
      <use xlink:href="#DejaVuSans-6d" transform="translate(825.59375 0)"/>
      <use xlink:href="#DejaVuSans-61" transform="translate(923.005859 0)"/>
      <use xlink:href="#DejaVuSans-74" transform="translate(984.285156 0)"/>
      <use xlink:href="#DejaVuSans-69" transform="translate(1023.494141 0)"/>
      <use xlink:href="#DejaVuSans-6f" transform="translate(1051.277344 0)"/>
      <use xlink:href="#DejaVuSans-6e" transform="translate(1112.458984 0)"/>
      <use xlink:href="#DejaVuSans-20" transform="translate(1175.837891 0)"/>
      <use xlink:href="#DejaVuSans-42" transform="translate(1207.625 0)"/>
      <use xlink:href="#DejaVuSans-6f" transform="translate(1276.228516 0)"/>
      <use xlink:href="#DejaVuSans-74" transform="translate(1337.410156 0)"/>
      <use xlink:href="#DejaVuSans-74" transform="translate(1376.619141 0)"/>
      <use xlink:href="#DejaVuSans-6c" transform="translate(1415.828125 0)"/>
      <use xlink:href="#DejaVuSans-65" transform="translate(1443.611328 0)"/>
      <use xlink:href="#DejaVuSans-6e" transform="translate(1505.134766 0)"/>
      <use xlink:href="#DejaVuSans-65" transform="translate(1568.513672 0)"/>
      <use xlink:href="#DejaVuSans-63" transform="translate(1630.037109 0)"/>
      <use xlink:href="#DejaVuSans-6b" transform="translate(1685.017578 0)"/>
     </g>
    </g>
   </g>
  </g>
 </g>
 <defs>
  <clipPath id="p1423f868bd">
   <rect x="7.2" y="13.42965" width="753.3" height="421.344"/>
  </clipPath>
 </defs>
</svg>
